<svg xmlns="http://www.w3.org/2000/svg" viewBox="0 0 171 56">
  <path fill="currentColor" d="M38.8405797 29.8780971c.5797102-.2890186 1.2173913-.6358409 1.7971015-.9248594.231884-.1156075 1.0434782-.404626 1.1594202-.6358409.0579711-.1156074 0-.4624297 0-.6358408V5.48493012c0-.05780372.0579711-.46242971 0-.52023342-.057971-.05780372-.5217391 0-.5797101 0H39.942029c-.4637681 0-.4057971.05780371-.6956522.40462599-1.1014493 1.44509283-2.2028985 2.89018566-3.3043478 4.3930822-.5217391.69364451-1.0434783 1.32948541-1.5072464 2.02313001-.3478261.4624297-.3478261.5202334-.9855072.5202334l.173913-3.8150451c.057971-.92485941.057971-1.84971882.115942-2.77457823 0-.34682228.057971-.69364456.057971-1.04046684 0-.11560743-.057971-.4624297 0-.52023342.1159421-.17341114 1.1594203-.05780371 1.4492754-.05780371h21.6811594c.1159421 0 .6376812-.05780371.7536232 0 .115942.05780371.057971.40462599.057971.57803713.057971.75144827.057971 1.56070026.1159421 2.31214853.057971 1.67630768.115942 3.29481164.231884 4.97111934v.3468223c-.2898551 0-.5217391.0578037-.7536232-.1156075-.231884-.1734111-.4057971-.5202334-.5797101-.7514482-.6956522-.9248594-1.3913044-1.90752256-2.1449275-2.83238197l-2.0869566-2.77457824c-.115942-.17341113-.289855-.57803713-.5217391-.69364455-.173913-.11560743-.5217391-.05780372-.7536232-.05780372h-.9275362c-.115942 0-.5797102-.05780371-.6956522 0-.057971.05780372 0 .05780372-.057971.17341114-.115942.46242971 0 1.04046684 0 1.50289655V26.872304c0 .404626-.115942.9826631 0 1.3872891.115942.404626 1.0434783.6936446 1.4492754.8670557.4057971.2312149 1.1014492.404626 1.4492753.7514483.115942.1156074.2318841.6936445.115942.8670557-.057971.0578037-.347826 0-.4057971 0H39.4202899c-.1159421 0-.5217392.0578037-.5797102 0-.057971-.2312149 0-.6936446 0-.8670557Zm21.5072464-1.0404669V4.32885585c0-.34682228.115942-.8670557 0-1.21387797-.115942-.404626-.8115942-.46242971-1.2173913-.63584085-.2318841-.05780371-.9855073-.23121485-1.1014493-.4624297v-.46242971h.1739131c.231884-.11560743.6956521-.11560743.9855072-.17341114.5217391-.11560743 1.0434783-.17341114 1.5072464-.28901856 1.1594203-.23121486 2.3768116-.46242971 3.5362319-.63584085.6956521-.11560743 1.3913043-.28901857 2.0869565-.404626.173913 0 .8695652-.11560742.9275362 0 .057971.05780372 0 .28901857 0 .34682229V12.363572c2.2028986-2.1965411 6.0289855-3.41041909 9.1014493-2.65897082 2.6666667.63584082 3.5362319 3.12140052 3.5362319 5.66476392.057971 3.2370079 0 6.4162121 0 9.6532201v2.6011671c0 .2890185-.1159421.9826631 0 1.2716816.057971.1156075.289855.1734112.4057971.2890186.4057971.2312149.8695652.4624297 1.2753623.6936446.057971.0578037.231884.1156074.231884.1734111.0579711.0578037.0579711.5780371 0 .6358409-.057971.1156074-.057971.0578037-.231884.0578037-.6376812.1156074-1.3333333 0-1.9130435 0h-8.3478261c-.057971 0-.3478261.0578037-.4057971 0-.057971-.0578037-.057971-.6936446 0-.7514483.1739131-.2312149.8695652-.4624297 1.1014493-.6358408.173913-.1156075.6956522-.2890186.8115942-.4624298.115942-.1734111 0-.8092519 0-.9826631v-2.3699522c0-3.3526154.057971-6.7630345 0-10.1156498 0-.9826631-.173913-2.1387374-1.1594203-2.6589708-.5217391-.2890186-1.2173913-.3468223-1.7971014-.3468223-.4637682 0-.9275363.1156074-1.3333334.2312148-.3478261.1156075-.9855072.3468223-1.2173913.6358409-.173913.2312148-.057971.5780371-.057971.8670557v13.6416763c0 .2890186-.115942.8670557 0 1.0982705.057971.1156075.2898551.2312149.4637681.2890186.4057971.2312149.9275363.4624297 1.3333334.6936446.057971.0578037.173913.0578037.173913.1156074.057971.0578037.057971.5780371 0 .6358408-.057971.0578038-.115942.0578038-.2318841.0578038-.6376811.0578037-1.3333333 0-1.9710144 0h-8.3478261c-.057971 0-.3478261.0578037-.4057971 0-.057971-.0578038 0-.6358409.057971-.7514483.173913-.2312149.8115942-.4624297 1.0434782-.5780371.4057971-.1734112.6956522-.3468223.9855073-.5202335Zm27.5362319-7.9769124c.115942 2.5433634.9275362 5.3757453 3.2463768 6.7630345 1.2173913.6936445 2.7246377.9248594 4.115942.8092519 1.6811594-.1734111 3.0724638-.9826631 4.5217391-1.7341114 0 .2312149.0579711.6358409 0 .8670557-.115942.2312149-.4057971.5202335-.5797101.6936446-.2318841.2312149-.5217391.5202334-.8115942.7514483-.9855073.809252-2.0869565 1.3872891-3.2463768 1.7919151-2.2028986.7514483-4.7536232.6936445-7.0144928.1156074-1.7971014-.4624297-3.4202898-1.3294854-4.6376811-2.7167745s-1.9130435-3.1792042-2.2028986-5.0289231c-.6376811-3.9884562.115942-8.5549495 3.4202899-11.2139203 2.8985507-2.31214854 7.5362319-2.77457824 10.9565217-1.3872891 4.1739131 1.6763077 4.8695651 6.4162121 4.8695651 10.3468646H89.4492754c-.5217392-.0578037-1.0434783-.0578037-1.5652174-.0578037Zm-.1159421-.9826631c1.1594203-.0578037 2.3188406-.1156074 3.5362319-.2312149.6956522-.0578037 1.4492754-.0578037 2.1449276-.1156074.115942 0 .4057971 0 .5217391-.0578037.173913-.1156074.057971-1.2716817.057971-1.5028965-.057971-2.0809337-.115942-4.6242971-1.3333333-6.4162122-.8695652-1.2716817-2.2028986-1.0404668-3.0144928.1156074C88 13.9242722 87.7681159 17.2768876 87.7681159 19.8780547ZM0 40.97641c0-3.2370079.63768116-6.5896233 2.43478261-9.3063978 1.73913043-2.6589708 4.52173913-4.3930822 7.53623188-5.2601379 3.65217391-1.0404669 7.71014491-.9248594 11.47826091-.2312149.8115942.1734112 1.6231884.3468223 2.3768116.5780372.115942.0578037.6376811.1734111.6956521.2890185v.1734112c.1739131.6936445.057971 1.5607002.057971 2.2543448.0579711 1.7919151.0579711 3.6416339.1159421 5.433549-.2318841 0-.6376812.0578037-.8115942 0-.1159421-.0578037-.2318841-.3468223-.2898551-.4624297-.4637681-.6936445-.9275362-1.3872891-1.3333333-2.1387374-.9855073-1.5607002-2.0289855-3.1214005-3.0144928-4.6821007-.5217391-.8670557-1.9710145-.8670557-2.8985507-.8670557-1.0434783 0-2.0869565.1734111-2.9565218.6936445-1.9710144 1.213878-2.8985507 3.5838302-3.42028981 5.7225676-.8115942 3.4104191-.75362319 6.9942493-.57971014 10.4624721.17391304 2.6589708.4057971 5.4913528 1.44927535 7.9191087.6376812 1.5028965 1.7391304 2.8323819 3.4202899 3.1792042.5217391.1156075 1.0434782.1156075 1.6231884.0578037.3478261-.0578037 1.5652174-.1156074 1.7391304-.4624297.057971-.1156074 0-.404626 0-.5202334v-9.4798089c0-.404626.115942-.5780372-.2318841-.809252-.4057971-.2312149-.8695652-.4624297-1.2753623-.7514483-.289855-.1734111-.8695652-.3468223-1.0434782-.5780371-.1159421-.1156075-.1739131-.7514483-.057971-.8670557.057971-.1156075.057971-.0578037.231884-.0578037.5217391-.1156075 1.2173913 0 1.7391304 0h8.9855073c.5797101 0 1.2173913-.0578038 1.7971014 0H28c.057971.0578037.057971.8670557 0 .9826631-.115942.1734111-.6956522.404626-.9275362.5202334-.4057971.2312149-.8695652.4624297-1.2753624.7514483-.4637681.2312148-.4057971.2312148-.4057971.7514482v9.4220053c0 .1156074.0579711.404626 0 .5202334-.115942.2890186-1.3333333.4624297-1.6811594.5780371-.9855072.2890186-2.0289855.5202335-3.0724637.6936446-2.0289855.3468223-4.0579711.4624297-6.0869566.404626-3.2463768-.1156074-6.66666663-.809252-9.3333333-2.7745782-2.31884058-1.6763077-3.82608695-4.2196711-4.52173913-6.9942493C.17391304 44.5024365 0 42.7105214 0 40.97641Zm26.7246377-5.2601379c0-.1156074-.057971-.5780371 0-.6358408.057971-.0578038.115942 0 .173913-.0578038.3478261-.1734111.8115942-.1734111 1.2173913-.2312148 1.3333334-.2312149 2.6666667-.4624297 4.057971-.6936446 1.0434783-.1734111 2.0869566-.404626 3.0724638-.5202334.2898551-.0578037.6376812-.0578037.9275362.0578037.2898551.0578037.1739131 0 .2318841.2312149.115942.6936445 0 1.5028965 0 2.1965411v12.080976c0 1.4450929-.4057971 4.1040637.9855072 4.9711194.6956522.4624297 1.6811595.4624297 2.4927537.2890185.6376811-.1156074 1.8550724-.5780371 2.0869565-1.2716817.057971-.1734111 0-.404626 0-.5780371V37.3925798c0-.1156074.057971-.4624297 0-.5780372-.1739131-.1734111-.7536232-.3468222-.9275362-.4046259-.3478261-.1156075-.6376812-.2890186-.9855073-.404626-.115942-.0578037-.5217391-.1156075-.5797101-.2312149-.057971-.0578037-.057971-.5780371 0-.6358408.057971-.0578037.057971 0 .115942-.0578037.2898551-.1734112.8115942-.1156075 1.1014493-.1734112 2.3768116-.404626 4.8115942-.9248594 7.2463768-1.2716817.2898551-.0578037.5797101-.0578037.8695652 0 .2898551.0578037.173913-.0578037.2318841.2312149.115942.5780371 0 1.3872891 0 2.0231299v16.6474694c0 .1734112-.0579711.4624297 0 .6936446.057971.1734111 0 .1156074.289855.2312148.5797102.2312149 1.2173913.5202335 1.7971015.7514483.173913.0578037.231884.0578037.2898551.1734111.057971.1156075.057971.5202335 0 .5202335-.1159421.1156074-.6956522.0578037-.8115942.1156074-1.2753624.1734111-2.5507247.2890186-3.884058.4624297-1.1594203.1156074-2.3188406.2890186-3.4202899.404626-.231884.0578037-.4637681.0578037-.6956521 0-.1159421 0-.4637682 0-.5217392-.0578037-.057971-.1156074 0-.5780372 0-.6936446v-.9826631c0-.1734111.1159421-.6358408 0-.809252-.115942-.1734111-.3478261.0578037-.5217391.1734112-.4637681.4046259-.9855073.8092519-1.5072464 1.0982705-1.9130435 1.1560743-4.2898551 1.6763077-6.4927536 1.213878-1.6231884-.3468223-3.0144928-1.2716817-3.7101449-2.832382-.5217392-1.0982705-.6376812-2.3121485-.6376812-3.4682228V37.3925798c0-.1156074.057971-.4624297 0-.5780372-.115942-.1734111-.8115942-.3468222-.9855072-.4624297-.5797102-.2312148-1.0434783-.4046259-1.5072464-.6358408Zm54.6666666-2.1965411c.1159421 0 .6376812 0 .6956522.1156074.057971.0578037 0 .4624297 0 .5202334v5.0867268c0 .1734111-.057971.4624297 0 .6358408v.1156075c.2318841.2312148.2898551-.5202334.3478261-.5780372.5217391-2.1387373 1.5072464-4.624297 3.7101449-5.4913527.4057971-.1734111.8115942-.2312149 1.2173913-.2890186.3478261 0 1.3333334-.1156074 1.5072464.1734112.057971.1156074 0 .404626 0 .5202334v5.8959787c-1.3913043-.2890185-2.9565217-.2312148-4.2898551.0578037-.6376811.1156075-1.2173913.2890186-1.7971014.5780372-.2898551.1156074-.3478261.0578037-.4057971.2890185-.057971.2312149 0 .6358409 0 .8670557v11.1561167c0 .1156074-.057971.2890185 0 .404626.115942.1734111.5217391.2890185.6956522.3468222.289855.1734112.6376811.3468223.9275362.5202335.115942.0578037.2898551.1156074.3478261.2312148.057971.0578037.057971.7514483 0 .809252-.057971.0578037-.4057971 0-.5217391 0h-9.6231884c-.2898551 0-.8115943.1156074-1.0434783 0h-.1739131c-.057971-.0578037 0-.6936446 0-.7514483.1159421-.3468223.8695653-.5780371 1.2173914-.7514482.231884-.1156075.6956521-.2890186.8115942-.5202335.057971-.1156074 0-.4624297 0-.5780371V36.8145426c0-.0578037.057971-.3468222 0-.4046259-.0579711-.0578038-.3478261-.1156075-.4637682-.1156075-.347826-.1156074-.6956521-.2312148-1.0434782-.2890185-.3478261-.1156075-1.2173913-.1734112-.9275363-.7514483.0579711-.1734111.2898551-.1156074.5217392-.1734111 2.5507246-.4624298 5.0434782-.9248595 7.5942029-1.3872892.231884-.1156074.4637681-.1156074.6956521-.1734111Zm21.8550727.5202334V28.086182c0-.1734112.057971-.5202335 0-.6936446-.057971-.1156074-.289855-.1734111-.463768-.2312148-.463768-.1734112-.927537-.3468223-1.449276-.5202335-.347826-.1156074-.521739-.0578037-.521739-.4624297 0-.3468223-.057971-.2312148.231884-.2890185.637681-.2312149 1.391305-.2312149 2.028986-.3468223 1.913043-.3468223 3.768116-.6936446 5.681159-1.0404669.405797-.0578037.811594-.1734111 1.217391-.1156074.463769.0578037.52174-.0578037.52174.3468223.057971.9248594 0 1.9075225 0 2.8323819v25.3180264c0 .2312149-.057971.2312149.115942.3468223.347826.2312148.927536.3468223 1.275362.4624297.231884.0578037.869565.1734111.985507.3468223.057971.0578037.057971.6936445 0 .7514482-.057971.0578038-.405797.0578038-.463768.0578038-.811594.1156074-1.565217.2312148-2.376811.2890185-1.797102.2312149-3.594203.4624297-5.449276.6936446-.289855.0578037-.985507.1734111-1.101449-.0578037-.115942-.2312149 0-.9826632 0-1.213878 0-.1734112.115942-.9248594 0-1.0404668-.115942-.1156075-1.391304 1.0404668-1.565218 1.1560742-.695652.4624297-1.449275.809252-2.2608691 1.0404669-1.2753623.3468222-2.7246377.3468222-4 .0578037-5.5652174-1.2716817-6.7246377-7.861305-6.2608696-12.6590132.2318841-2.5433634 1.0434783-5.0867268 2.7826087-6.9364456C93.7971014 34.5023941 96 33.6353384 98.2608696 33.4619273c1.7391304-.1734112 3.4202894-.0578037 4.9855074.5780371Zm0 18.4393845V35.6006647c0-.3468223-.057971-.404626-.463768-.6358409-.811595-.4624297-1.855073-.6358408-2.724638-.2890185-1.3333333.5202334-1.9710145 2.0809336-2.3188406 3.3526153-.6956521 2.3121486-.7536232 4.7977082-.6956521 7.2254642.057971 2.0809336.115942 4.624297 1.2753623 6.4740158 1.0434782 1.618504 3.4202894 2.02313 4.9275364.7514483Zm19.188406-18.9596179c.289855.0578037.637681-.0578037.753623.2312149.057971.1734111 0 .5780371 0 .7514482v18.0925622c0 .2312149-.057971.5780372 0 .809252.057971.2312149.289855.2890186.521739.404626.347826.1734112.637681.3468223.985507.5202334.115942.0578037.463768.1734112.521739.3468223 0 .0578037.057971.7514483 0 .809252h-.173913c-.347826.0578037-.811594 0-1.217391 0h-8.811594c-.231884 0-.869565.1156074-1.043479 0-.115942-.0578037-.173913-.7514483-.057971-.8670557.115943-.1734111.52174-.2890186.695653-.3468223.347826-.1734111.695652-.404626 1.043478-.5780371.289855-.1734111.231884-.1156074.231884-.3468223.115942-.8670557 0-1.8497188 0-2.7167745v-12.890228c0-.2312149.057971-.6358409 0-.8670557-.057971-.2312149-.347826-.2312149-.57971-.3468223-.405797-.1734112-.753623-.2890186-1.15942-.4624297-.115942-.0578037-.579711-.1156074-.695653-.2890186-.057971-.0578037-.057971-.6358408 0-.6936445.057971-.0578038.173913 0 .231884-.0578038.463769-.1734111.985508-.1734111 1.507247-.2890185.753623-.1156075 1.449275-.2890186 2.202898-.404626 1.449276-.2312149 2.84058-.5202334 4.289855-.7514483.289855.0578037.52174 0 .753624-.0578037Zm.811594-5.3757453c-.115942 3.4682228-4.811594 4.9711193-6.956522 2.2543448-.985507-1.2716817-1.043478-3.0057931-.173913-4.3352785.869565-1.3294854 2.550725-1.9075225 4.115942-1.5607003 1.73913.3468223 3.014493 1.8497189 3.014493 3.641634Zm25.391304 25.3758301V36.9301501c0-.0578037.057971-.3468223 0-.404626-.057971-.1156074-.405797-.1734112-.521739-.1734112l-1.043478-.3468222c-.173913-.0578037-.637681-.1156075-.753623-.2890186-.115942-.1156074-.057971-.404626-.057971-.5780371 0-.3468223.115942-.2890186.463768-.3468223l3.826087-.6936446 3.826087-.6936445c.231884-.0578037.405797-.1156075.637681-.1156075.115942 0 .695652 0 .811594.0578038.057971.0578037 0 .404626 0 .5202334v1.0982705c0 .1734112-.115942.6936446 0 .8670557.115942.2312149.347826 0 .521739-.1734111.521739-.404626 1.043478-.7514483 1.623188-1.0404669 2.086957-1.1560742 4.579711-1.6763076 6.956522-1.3294854 1.623189.2312149 2.956522 1.0982706 3.536232 2.6589709.405797 1.0982705.463768 2.2543448.463768 3.410419v13.1792466c0 .2312149-.057971.6358409 0 .8670557.057971.2312149.231884.2890186.521739.404626.289855.1734112.637682.3468223.927537.5202334.115942.0578037.521739.1734112.57971.3468223.057971.1156074.057971.6936446 0 .7514483-.057971.1156074.057971 0-.115942.0578037-.231884.1156074-.753623 0-1.043479 0h-8.289855c-.347826 0-1.681159.1734111-1.855072-.0578037-.057971-.0578037-.057971-.6936446 0-.809252.057971-.1156074.405797-.2312149.521739-.2890186.347826-.1734111.637681-.3468222.985507-.5202334.115942-.0578037.463768-.1734111.521739-.2890185.057971-.1156075 0-.3468223 0-.4624298V39.9359432c0-.9248595.057971-1.9653263-.521739-2.7745783-.463768-.6936445-1.275362-.8670557-2.086956-.9248594-.637681 0-1.217392.0578037-1.797102.2312149-.289855.1156074-1.15942.3468222-1.333333.6936445-.057971.1156075 0 .3468223 0 .4624297v14.9711617c0 .1734112-.057971.5780372 0 .7514483.057971.2312149.405797.2890186.57971.404626.289855.1734111.637681.3468223.927536.5202334.115942.0578037.347826.1734112.405797.2312149.057971.0578037.057971.7514482 0 .809252 0 .0578037-.057971 0-.115942 0-.231884.1156074-.811594 0-1.043478 0h-9.73913c-.289855 0-.347826.0578037-.405797-.1156075-.057971-.1156074-.057971-.6358408 0-.7514482.057971-.1156075.405797-.2312149.521739-.2890186.57971-.0578037 1.043478-.3468223 1.565217-.6358408Zm-12.289855-10.6358833c0-1.5028965.057971-3.0635968-.057971-4.624297-.173913-1.6763077-.637681-3.5260265-2.550725-3.8728488-.57971-.1156074-1.623188-.2890186-2.028985.1734111-.405797.404626-.695652.9826632-1.043478 1.4450929l-2.956522 3.9884562c-.173913.2312148-.347826.6936445-.57971.809252-.057971.0578037-.637681.0578037-.637681 0-.057971-.0578038 0-.4624297 0-.5780372V35.542861c0-.1734112-.057971-.4624297 0-.6358409.115942-.2890186 1.391304-.4624297 1.681159-.5780371 1.623188-.404626 3.304348-.6936446 4.985507-.809252 2.376812-.1734111 5.043479-.1156074 7.246377.9248594 1.739131.809252 2.84058 2.2543448 3.130435 4.1040636.173913.9248595.115942 1.9653263.115942 2.8901857v11.5607426c0 .1734112-.115942.6358409 0 .7514483.057971.0578037.347826.1156074.405797.1156074.463768.1156075.869565.2312149 1.333333.3468223.289855.0578037.347826.0578037.347826.3468223 0 .2890186.057971.2890186-.289855.404626-.405797.1734111-.811594.3468223-1.217391.4624297-2.144927.6358408-5.507246.809252-7.072464-1.1560743-.115942-.1734111-.463768-.9248594-.637681-.9826631-.231884-.0578037-.927536.8670557-1.15942 1.0404668-.927536.809252-2.144928 1.2716817-3.362319 1.4450929-2.26087.2890185-4.695652-.1734112-6.086957-2.1387374-1.15942-1.6763077-1.391304-4.2774748-.521739-6.1271936 1.565218-3.5260265 6.202899-3.8728488 9.565218-4.4508859.405797 0 .869565-.1156075 1.391304-.1734112Zm0 9.5954164v-8.5549495c-1.73913.1156074-3.536232.2312148-4.173913 2.1387374-.463768 1.2716816-.463768 2.7745782-.289855 4.1040636.115942.9248594.347826 2.0809337 1.217391 2.6589708.927537.6358408 2.492754.5202334 3.246377-.3468223Zm-73.3913043-9.5954164c0-1.5028965.0579711-3.0635968-.057971-4.624297-.173913-1.6763077-.6376811-3.5260265-2.5507246-3.8728488-.5797102-.1156074-1.6231884-.2890186-2.0289855.1734111-.4057971.404626-.6956522.9826632-1.0434783 1.4450929l-2.9565217 3.9884562c-.1739131.2312148-.3478261.6936445-.5797102.809252-.057971.0578037-.6376811.0578037-.6376811 0-.057971-.0578038 0-.4624297 0-.5780372v-4.624297c0-.1734112-.057971-.4624297 0-.6358409.115942-.2890185 1.3333333-.4624297 1.6811594-.5780371 1.6231884-.404626 3.3043478-.6936446 4.9275362-.809252 2.3768116-.1734111 5.0434783-.1156074 7.2463768.9248594 1.7391305.809252 2.8405797 2.2543448 3.1304348 4.1040637.1739131.9248594.1159421 1.9653262.1159421 2.8901856V53.057386c0 .1734112-.1159421.6358409 0 .7514483.057971.0578037.347826.1156074.4057971.1156074.4637681.1156075.8695652.2312149 1.3333333.3468223.2898551.0578037.3478261.0578037.3478261.3468223 0 .2890186.057971.2890186-.2898551.404626-.4057971.1734111-.8115942.3468223-1.2173913.4624297-2.1449275.6358408-5.5072464.809252-7.0724638-1.1560743-.115942-.1734111-.4637681-.9248594-.6376811-.9826631-.2318841-.0578037-.9275363.8670557-1.1014493 1.0404668-.9275362.809252-2.1449275 1.2716817-3.3623188 1.4450929-2.2608696.2890185-4.6956522-.1734112-6.0869566-2.1387374C51.3623188 52.0169192 51.1304348 49.4157521 52 47.5660333c1.5652174-3.5260265 6.2028986-3.8728488 9.5072464-4.4508859.4637681-.0578037.9275362-.1734112 1.4492753-.2312149Zm0 9.5954164v-8.5549495c-1.7391304.1156074-3.5362318.2312148-4.173913 2.1387374-.4637681 1.2716816-.4637681 2.7745782-.2898551 4.1040636.1159421.9248594.3478261 2.0809337 1.2173913 2.6589708.9275363.6358408 2.4927537.5202334 3.2463768-.3468223Z"/>
</svg>