<svg xmlns="http://www.w3.org/2000/svg" xmlns:xlink="http://www.w3.org/1999/xlink" viewBox="0 0 87 43">
  <defs>
    <path id="a" d="m11.304.592.382 4.772-.313.07S8.07 1.845 7.687 1.531c-.174-.14-1.74-1.254-3.409-.104 0 0-1.635 1.114-.556 3.135 1.043 2.055 4.104 3.483 4.939 3.97.765.488 4.73 2.404 4.208 6.305-.487 3.692-3.756 4.737-5.113 5.016-2.887.557-7.408-.662-7.408-.662L0 14.176l.383-.034s3.304 3.97 4.59 4.423c1.288.488 3.061.662 4.14-.696 1.078-1.359.174-3.275-.87-4.006-1.495-1.01-3.652-2.16-5.147-3.17C1.39 9.58.313 7.907.104 6.06c-.313-2.612 1.218-4.737 3.2-5.503C5.113-.175 6.608 0 7.964.069c1.288.07 3.34.523 3.34.523Z"/>
    <path id="c" d="m16.73 13.828-.383-.139s-2.4 2.822-3.304 3.588c-.904.766-1.704.801-3.06.906-1.392.139-3.131.104-3.131.104v-8.36s2.226.07 3.06.07c.835 0 1.114.383 1.218.453.14.07 1.739 2.403 1.739 2.403h.348V6.444h-.348s-.8 1.08-1.356 1.707c-.627.731-.8.731-1.287.8-.348.036-3.374.105-3.374.105V.871l2.887.104s.834 0 1.634.21c.383.139.8.278 1.392.8.591.558 3.13 3.17 3.13 3.17l.313-.104L15.86 0H0v.279l2.365 1.358v16.128L0 19.088v.279h16.417l.313-5.539Z"/>
    <path id="e" d="M13.426 13.236 19.338 0h6.4v.279l-2.33 1.358v16.058l2.33 1.358v.279h-9.147v-.244l2.365-1.358V4.006l-6.922 15.082H11.2L3.791 3.657v14.038l2.365 1.358v.279H0v-.244l2.4-1.358V1.602L0 .244V0h6.991z"/>
    <path id="g" d="M2.365 17.73 0 19.088v.244h9.147v-.279l-2.365-1.358V1.637L9.147.279V0H0v.244l2.365 1.358z"/>
    <path id="i" d="M14.434 19.332H4.14v-.279l2.852-1.358V.905h-.035s-.835 0-1.634.21c-.383.139-.8.278-1.392.8C3.41 2.439.348 5.609.348 5.609L0 5.468.452 0h17.286l.557 5.469-.348.139s-3.06-3.135-3.652-3.692c-.556-.558-1.009-.662-1.391-.801-.765-.21-1.461-.175-1.461-.175v16.755l2.887 1.358.104.279Z"/>
  </defs>
  <g fill="none" fill-rule="evenodd">
    <path fill="#555" fill-rule="nonzero" d="M15.915 40.87c-3.547-5.499-4.502-6.977-5.389-7.733 2.08-.962 3.172-2.542 3.172-4.673a5.023 5.023 0 0 0-3.07-4.64c-1.261-.48-2.387-.583-4.57-.583H2v19.518h2.217v-9.003H5.82c1.296 0 2.148 0 2.865.515.648.447 1.568 1.65 2.182 2.647l3.684 5.841h2.66l-1.296-1.89v.001ZM11.31 28.463c0 1.168-.614 2.302-1.467 2.715-.853.412-1.74.55-3.751.55H4.216v-6.53h1.978c2.183 0 3.035.275 3.615.55.887.481 1.5 1.547 1.5 2.715h.001Zm48.327-5.222h2.251V42.76h-2.251V23.241ZM75.769 23c-5.832 0-10.266 4.296-10.266 9.966C65.503 38.601 70.005 43 75.734 43 81.498 43 86 38.567 86 32.897 86 27.26 81.6 23 75.769 23Zm7.844 9.897c0 3.849-2.763 7.938-7.913 7.938-4.365 0-7.81-3.436-7.81-7.835 0-4.467 3.377-7.87 7.879-7.87 4.945.035 7.844 3.952 7.844 7.767Zm-32.161-8.351c-2.285-1.305-4.093-1.305-6.855-1.305H38.56v19.518h6.583c2.353 0 3.887-.068 6.275-1.34 3.376-1.787 4.57-5.704 4.57-8.488 0-3.642-1.637-6.7-4.536-8.385ZM40.777 40.801V25.199h3.99c2.251 0 3.615.069 5.457 1.272 3.07 1.959 3.41 5.189 3.41 6.46 0 2.818-1.33 5.395-3.376 6.633-1.978 1.134-3.342 1.237-5.218 1.237h-4.263ZM27.476 23.103h-1.33l-8.901 19.656h2.353l2.933-6.494h8.594l2.933 6.494h2.354l-8.936-19.656Zm2.729 11.134h-6.787l3.41-7.491 3.377 7.491Z"/>
    <g transform="translate(74.084)">
      <mask id="b" fill="#fff">
        <use xlink:href="#a"/>
      </mask>
      <path fill="currentColor" fill-rule="nonzero" d="M-3.687-3.727H16.59v27.413H-3.687z" mask="url(#b)"/>
    </g>
    <g transform="translate(55.65 .383)">
      <mask id="d" fill="#fff">
        <use xlink:href="#c"/>
      </mask>
      <path fill="currentColor" fill-rule="nonzero" d="M-3.687-3.657h24.103v26.682H-3.687z" mask="url(#d)"/>
    </g>
    <g transform="translate(29.042 .313)">
      <mask id="f" fill="#fff">
        <use xlink:href="#e"/>
      </mask>
      <path fill="currentColor" fill-rule="nonzero" d="M-3.687-3.657h33.112V22.99H-3.687z" mask="url(#f)"/>
    </g>
    <g transform="translate(18.99 .313)">
      <mask id="h" fill="#fff">
        <use xlink:href="#g"/>
      </mask>
      <path fill="currentColor" fill-rule="nonzero" d="M-3.652-3.657h16.486V22.99H-3.652z" mask="url(#h)"/>
    </g>
    <g transform="translate(0 .313)">
      <mask id="j" fill="#fff">
        <use xlink:href="#i"/>
      </mask>
      <path fill="currentColor" fill-rule="nonzero" d="M-3.687-3.692h25.634v26.716H-3.687z" mask="url(#j)"/>
    </g>
  </g>
</svg>