<svg xmlns="http://www.w3.org/2000/svg" xml:space="preserve" viewBox="0 0 652.234 140.8"><path fill="currentColor" d="M42.9 70.1H12.4v-.8l8.5-4V15.5h-.1s-2.5 0-4.8.6c-1.101.4-2.4.8-4.101 2.4C10.2 20.1 1.1 29.4 1.1 29.4l-1-.4 1.4-16.2h51.2L54.4 29l-1 .4s-9.1-9.3-10.8-10.9c-1.7-1.6-3-2-4.1-2.4-2.3-.6-4.3-.5-4.3-.5v49.6l8.6 4 .1.9zm394.5 0h-30.5v-.8l8.5-4V15.5h-.1s-2.5 0-4.8.6c-1.101.4-2.4.8-4.101 2.4-1.701 1.6-10.802 10.9-10.802 10.9l-1-.4 1.302-16.2h51.199l1.7 16.2-1 .4s-9.101-9.3-10.8-10.9c-1.7-1.6-3-2-4.101-2.4-2.302-.6-4.302-.5-4.302-.5v49.6l8.602 4 .203.9zM115.9 17.7l6.9-4v-.8H95.7v.8l7 3.9v21.3l-26.1.2V17.7l7-4v-.8H56.4v.8l7.1 4v47.6l-7.1 4v.8h27.2v-.9l-7-4V42.3l26.1.2v22.8l-7 4v.8h27.1v-.9l-6.9-4zm342 47.6-7 4v.7H478v-.8l-7-4V17.7l7-4v-.8h-27.1v.7l7 4z"/><g fill="currentColor"><path d="M237.5 19s-1.5 1-2 1.2c-.3.2-2.5 1.2-2.5 1.2l.1.7s1.101.3 1.7.4c.7.1 1.8 0 1.8 0s.101-.7.7-1.4c.7-.6 1-1.1 1-1.1l-.8-1zm3.6 11.1c.2-.3 1.5-2.8.5-4.3-1.1-1.5-3.1-3.8-3.1-3.8l-.2.2s.8 1 1.2 1.6c.399.6 1.7 2 1.6 3.7 0 1.6-.8 2.8-1.1 3.1-.3.3.9-.2 1.1-.5zm-5.4-2.2c-.301.2-.5 1.2.3.7.8-.6-.1-.9-.3-.7zm-.6-1.3c-.399 0-.6.5-.2.9.4.3.5-.9.2-.9zm1.1-.3c-.301.6.1 1.2.8.6s-.6-1-.8-.6z"/><path d="M235.8 23.6c0 .1-.7-.5-1.7-.6s-1.7-.4-1.7-.4l.2-1.9s.5-.2.9-.2c.3 0 .899-.3.899-.3l-.199-.6s-.5 0-1.101.3c-.5.2-1.5.3-1.5.3l-.1 3.2s1.5.1 2.2.2c.8.1 1.899.5 1.899.5l.202-.5zm1.1.6c.5 0 .7-1 .101-.9-1.001 0-.701.9-.101.9zm-.3 1c-.1.5.7.4.9 0 .1-.4-.8-.6-.9 0zm-.6.1c-.4 0-.5.5-.101.5.269 0 .358-.236.167-.429-.053-.009-.105-.032-.066-.071z"/><path d="M236 25.3c.033.022.043.047.066.071.086.013.179-.01-.066-.071zm27.7 31.4c.1-.2.399-1.1.399-1.4 0-.4-.399.1-.5.4-.2.3-.5.3-.5.3s.4-.7.5-1.2c.101-.4-.3-.6-.399-.4-.101.3-.4.5-.601.6-.201.1.101-.6.2-.8.1-.3.1-.6.1-.6s-1.1-.5-1.6-.6c-.6-.2-1.1-.6-1.5-.6-.4 0 .1.5.2.8.1.3 1.5 2.6 1.5 2.9 0 .3-.2 1.4-.4 1.8-.208.208-.501.221-.669.211.229.123.544.243.869.188.6-.1 1.7-.4 2-.9a.79.79 0 0 1 .396-.324.51.51 0 0 1 .005-.375zm-56.635 6.871c-.016.16-.015.331.035.529.021.084.056.138.085.203l.016-.003c.53-.089.277-.723-.136-.729zM363.9 21.5c-.302.1-2.602 2.1-3 2.4-.399.3-3.7.7-4.302.7-.601 0-2.101.3-2.101.3l.5 1.4s.601-.1 1-.1c.4 0 1.301.4 2.101.7.802.3 2.602 1.5 3.2 1.7.602.2 2.102.2 2.602-.3s2.198-1.3 2.5-1.5c.3-.2 2.198-.1 2.198-.1l-.101-.6s-.899-.3-1.399-.4c-.5-.1-1.8-.1-1.8-.1s-.2.2-.5.8-1.2 1.1-2.101 1.2c-.899.1-1.399-.6-2-.9-.602-.3-1.899-.7-2.2-.7-.3-.1-.399-.2.2-.4.5-.1 3.2-.4 3.8-.6.601-.2 2.301-2.2 2.601-2.5.399-.2 2.802 0 2.802 0l-.5-1.3s-1.302.1-1.7.1c-.399 0-1.4.2-1.8.2zm-100 35.7c.059-.029.125-.106.197-.206a1.218 1.218 0 0 0-.4.082c.039.103.109.171.203.124zm96-40.6c0 .9-1.302.9-2.102.8-.801-.2-1.301-.1-2 .3-.7.3-3 2.8-3 2.8l.5 1s2.3-1.2 3.102-1.2c.398 0 3.398.1 4.398.1.699 0 .8-.2.899-1.1.101-1 1.2-1.8 1.898-1.8.7 0 1.802.2 1.802.2s-.602-.9-1.302-1c-.698-.1-1.398.2-2.101.4-.699.3-1.199 1.9-1.699 2.2-.5.3-2 .1-2.801.1-.8 0-2.899.8-2.899.8s1.302-1.2 2.102-1.7 2.101-.3 3-.6c.898-.3.7-2.2.7-2.8s2.198-1.3 2.198-1.3l-.198-.3-2.2.7c-.597.3-.297 1.5-.297 2.4zM196.8 67.1l4.4-1.6s-6.4-2.5-8-3.3c-1.601-.8-6.4-3.7-6.4-3.7l1.3 4.3s2.3 1.3 3.3 1.8c2.7 1.3-.2-.1 5.4 2.5zM355 39.7s-.5 1-.101 1.4c.601.6 3.198.6 3.198.6s-1.8-1.1-2.198-1.3c-.399-.2-.899-.7-.899-.7z"/><path d="M365.9 27.9c-.302.2-1 .9-1.302 1.1-.198.2-1.3.4-1.601.9-.3.5-1.199.4-1.899.2-.698-.2-1.3-.3-2.101-.3-.8 0-2.699.4-3 .5l.2 2s1.5.5 1.898.8c.399.3.802.4 1.302.6.5.2 2.398.2 2.698.5.302.2.802.7 1.302.7s3.1 0 3.898.1 1.5.1 1.5.1v-.5s-1.398-.6-1.801-.6c-.4 0-1.899-.1-2.3 0-.399.1-1.3.1-1.3.1s1.3-.8 1.5-1.1c.198-.3.5-.8 1.198-.9.7-.1 1.802-.1 2.2-.1.399 0 1.5.3 1.5.3s0-.9-.301-1.1c.101.2-1.8-.1-2.399-.1-.698 0-1.8.6-2.198.9-.399.3-1.899 1.5-1.899 1.5s-.801-.2-1.101-.3c-.302-.1-1.899-.3-2.302-.4-.398-.1-1.898-.7-2.101-.8-.2-.1-.3-.7 0-.7h1.801c.699 0 1.602.1 2.399.2s1.699.1 2.101-.2c.399-.3 2.602-2.8 2.899-2.9.3-.2 2.8-.2 2.8-.2s0-.9-.199-.9c-.2 0-1.801.1-2.2.1-.393 0-.893.4-1.192.5zm-9.3 9.5c.5-.2 2.302-.1 2.7-.1.399 0 1.7.6 2 .5.3-.1 3-1.2 3.602-1.4.601-.2 1.5 0 2.198 0h1.9v-1c-.101.1-1.7.3-2.101.3-.399 0-1.5.1-1.899.2-.4.1-2.101.4-2.601.6s-.602-.1-1.302-.4c-.601-.3-1.898-.4-2.8-.6-.8-.2-2.3 0-2.3 0s-.2 1.2-.4 1.9l-.398 1.4s.301.2.601.3 1.399.7 1.7.8c.399.1 1.6.6 2.1.8.5.1.9.4 1.302.3.398-.1 2.3-1 2.8-1.3.5-.3 2.5-.2 2.5-.2v-1s-1.399-.3-1.699-.3c-.301 0-.801.5-1.101.8-.399.3-1.802.6-2.102.9-.3.3-.601.2-1.3.2-.7 0-1.2-.4-1.7-.8s-1.3-.8-1.7-.9c-.398-.2-.8-.2-.698-.5.098-.3.198-.2.698-.5zm5-15.7c-.398.2-3.6-.4-3.6-.4l-.101.5s2.101.2 2.698.2c.602 0 1 0 1.399-.1s2-.9 2.301-1.2c.3-.3 2.602-.2 2.602-.2l-.301-.5s-1.5 0-2.1.1c-.598.1-2.498 1.4-2.898 1.6zM195.811 61.182a.247.247 0 0 0 .109.022c-.015-.058-.021-.104-.021-.104s-.033.034-.088.082z"/><path d="M196.8 60.7s-.4.4-.8.5c-.03.008-.056.004-.081.004.029.118.11.295.381.295.284 0 .511-.148.623-.236-.264-.094-.123-.563-.123-.563zm.123.564c.028.01.039.036.077.036.012 0 .027-.011.041-.013-.025-.049-.041-.087-.041-.087s-.031.028-.077.064zM331.9 5.1c-.019-.026-.048-.046-.074-.067.032.038.063.082.104.141-.011-.025-.024-.054-.03-.074zm-71.6 53s.057.007.131.011c-.046-.024-.08-.046-.117-.069l-.014.058zm57.6-1.5c.101.4.8 2.3 1 3 .198.7-1.102.8-1.102.8l.102.4 3-1.1-.102-.3s-.801.3-1-.3c-.2-.6-.7-2.4-.7-2.4l3 2.8.7-.1 1.3-3.5s.399 2 .399 2.7c0 .8-.6.6-.6.6l.198.4h1.399c.5 0 2.301.3 2.301.3l-.2-.4s-.898-.4-1.199-.9c-.199-.6-.399-2.4-.5-2.8-.101-.4 1.199-.4 1.199-.4L327 55l-3.301-.2-1.102 2.5-2.5-2.2-2.453.572c-.12.246-.229.489-.315.714.212.008.462.052.571.214zm24.6-31.4c1.1-.7 1.199-1.5 1.3-1.7.102-.2-.601-.5-.8-.4-.2.1-1.7 1.4-2.101 1.5-.399.1-1.5.2-2.302-.2-.8-.4-1.3-1-1.3-1-.101.2-.301 1.6 1 2s3.103.5 4.203-.2zm-3.6-4.4c.101.6 1.101 1.2 1.8 1.4.7.2 2-.3 2.398-.4.399-.1.5.3.899.5.4.2.9.2 1.301.2.399 0 1.602 0 2-.2.399-.2.899-.7-.2-.5-1 .2-2.198-.4-3.198-.8s-1-2.1-1-2.1-1.9.1-2.5.1c-.602-.1-1.5-.4-1.5-.4s-.302.2-.399.3c-.1.1-.4.2-.5.4-.101.2-.601.1-1 .1-.4 0-.5.6-.4.9 0 0 .302.3.602.2.301-.1 1.101-.5 1.301-.5.296 0 .195.2.396.8zm1.7-.3c.2.3.7.1.7-.2.102-.3.102-.7.102-.7s.5.3.601.5c.1.2.3.9-.601 1.2-.899.3-1.399-.8-1.399-1.4-.003 0 .397.3.597.6zm32.2 40.8-.3-.5-.6.4.299.5zm.8-.6-.3-.6-.5.3.399.6zm-43.1-40.8c-.2 0-.801-.1-1-.3 0-.1-.5.1-.7.3-.2.2-.3.6-.2 1 .102.3 1.2.1 1.5 0 .302-.1.899-.2.899-.4.101-.2-.3-.6-.499-.6zm-17.9 21.5c.602-.1.2-.7-.198-.7-.402.1-.402.8.198.7zm2.099 7.3c-.199 0-.5.1-.5.1v.3l1 .2.398-3.4h-.197s-.2.5-.5.5c-.2 0-3.302-.5-3.602-.6-.2-.1-.301-.7-.301-.7h-.199v1.1c0 .2-.5 2-.5 2l1.3.5v-.3s-.698-.5-.8-.6c-.101-.2.3-1.1.3-1.1L313 47s-.101.4-.2.7c0 .3-.398.3-.398.3v.3l1.198.2v-.3s-.3-.1-.3-.3c0-.2.2-.8.2-.8l1.6.2s-.1.4-.1.7-.1.7-.301.7z"/><path d="M314.8 42.6h-3.5c-.3 0-.3-.4-.3-.4h-.2l-.101 1.8h.3s0-.5.301-.5h1.102v1c0 .3.3 1 .698 1 .302 0 1 .1 1.5 0s1-.9 1-1.3v-2.1h-.3s-.2.5-.5.5zm-.101 2.2c-.3.1-.5.1-.899.1-.398 0-.601-.1-.601-.3v-1l1.801-.1s.1.5.1.7c0 .2-.1.5-.401.6zM287.4 64.4l-.6-.5-3 1.5c-.6.3-2.2.9-2.2.9l.601.4s1.5-.7 2-.8c.699-.3 3.199-1.5 3.199-1.5zm.6.5s-2 .9-2.5 1.2c-.5.3-2.4 1.2-2.4 1.2l.601.5 4.899-2.6-.6-.3zm2.5 2.8c-.3.2-.5-.3-.3-.6.199-.2 1-.6 1-.6l-.7-.3s-.7.3-1 .5c-.3.2-1-.2-.601-.4.4 0 1-.5 1-.5l-.5-.2L287 66.8c-.6.3-2.6 1.2-2.6 1.2l.5.4s1-.4 1.301-.7c.3-.2.6.4.3.6-.3.2-1 .5-1 .5l.499.2s.7-.3 1.1-.5.8.1.601.3c-.2.2-.9.601-.9.601L288 69.8l4.7-2.5-.6-.3s-1.3.6-1.6.7zm-1.2 1.2c-.2.199-.4.3-.7 0-.399-.301.3-.602-.2-1s-1.2.3-1.399-.1c-.101-.3-.101-.4.399-.5.601-.3 1.3-.1 1.7.2s.4 1.2.2 1.4zm-9.7-39.1c-.1.1-.399.1-.6 0-.2-.1-2.101-1.5-2.3-1.6-.101-.1-.2-.3-.101-.5l.2-.2-.4-.2-1 1.7.2.1s.4-.3.601-.2c.199.1 2.6 1.7 2.8 1.8.2.1.2.3.2.3l-.101.3.2.1 1-1.7-.3-.3-.399.4zm6 33.2c.101 0-1.5.8-1.8.9-.3.2-3.2 1.5-3.2 1.5l.5.4 5-2.4-.5-.4zm-10.3-28.3c-.8-.2-2.6 0-2.8 1-.2.7-.4 1.8 1.2 2.2 1.6.4 3.199.5 3.6-1 .5-1.5-1.3-2-2-2.2zm1.4 1.8c-.101.5-.301 1-.5 1-.2 0-1.4.1-2.4-.2-1.1-.3-.8-1.1-.7-1.5.2-.6 2-.4 2.8-.1.7.3.9.3.8.8zm-1.1-6.8.101-.2-.301-.1s-.5.7-.699.9c-.2.3-.5 1-.5 1h.3s.7-.5 1-.4 2.7 1 2.7 1-1.4 0-1.9.2c-.6.2-2.5.5-2.5.5-.2.2-.6.9-.6.9l.1.1s.2-.3.5-.2c.3.1 3 1 3.2 1.2.2.1.2.5.2.5l.199.1.6-1.6-.2-.1s-.1.5-.4.5c-.3 0-2.5-1-2.5-1s2.4-.3 2.9-.5l1-.2.3-.6s-3.3-1.4-3.5-1.5c-.2 0-.1-.3 0-.5zm3.1-2.2h-.9l.4.8 1 .1zM312 37.6c-.7 0-.601.7 0 .7.6 0 .6-.8 0-.7zM276.1 39c-.3 0-3-.2-3.3-.2-.3 0-.3-.7-.3-.7h-.4s-.2.9-.2 1.2v.9h.301s0-.5.199-.5h1l.1 2.3h-1.2c-.2 0-.3-.7-.3-.7h-.3v2.1h.3s.2-.6.5-.6h3c.2 0 .5.6.5.6h.2s.199-.7.1-1c-.1-.3 0-1 0-1h-.3s-.101.6-.5.6c-.4 0-1.3-.1-1.3-.1l.1-2.3s1.1.2 1.3.2c.2 0 .5.2.5.4v.4l.4-.2v-.9c0-.2.2-.7.2-.7h-.3s0 .2-.3.2z"/><path d="M312.9 38.9c-.2.1-1.5.2-1.802.2-.3 0-.398-.5-.398-.5h-.2s.199.7.199 1c0 .2.101.9.101.9h.2s.1-.4.1-.5c0-.2 0-.3.2-.2.2 0 1.8-.1 1.8-.1s1.7 1.3 1.9 1.4c.199.1.199.6.199.6h.301s.1-.6.1-.9v-.9h-.3v.4c0 .1-.101.2-.398 0-.302-.2-1.5-1-1.5-1s1-1.6 1.198-1.8c.2-.2.5.3.5.3h.2l-.3-1.5-.2-.1-.2.1s0 .4-.198.6c-.2.2-1 1.2-1.102 1.5-.101.2-.2.4-.4.5zm-31.3-13.3c-.3 0-2.1.2-2.8-.2-.7-.4.9-1.1 1.2-1.1s1.3.4 1.3.4l.1-.2-1.1-1.3-.3.3v.3s-.5.1-1 .3c-.5.2-1 .9-.9 1.3.101.4.7.9 1.7.9s1.8-.1 2.1.2c.301.3.101 1-.6 1.1-.701.1-1.3-.4-1.3-.4l-.101.2 1.4 1.5v-.6s.5-.3 1-.3c.5-.1.6-1.2.4-1.7-.299-.5-.699-.7-1.099-.7zm4.7 15.2c.1-.2 0-.7 0-1 0-.2-.1-.4-.3-.5-.3-.2-1-.1-1.4-.1-.5 0-.6-.3-.5-.4h-.2s-.199-.2-.199.1c.1.3.699.6 1.5.6.699 0 .6.3.3.3-.301 0-.7 0-1.2-.1s-.7 0-1.2-.2c-.6-.2-.8 0-1 0-.2 0-.2.1-.4.4-.199.3-.3.5.101.8.399.3 0 .3-.2.4-.2.2 0 .2.3.2s.8-.4.8-.3c0 .2-1.199.8-1 .8.2 0 .2.2 1 0 .801-.2.801-.5 1-.6.2-.2.801-.4 1.2-.3.5.1-.1.2-.399.3-.301.2-1.101.5-.7.5.3 0 .899 0 1.1-.2.2-.1.9-.2 1.3-.2.397 0-.003-.4.097-.5zm1.7-10.6c.025.078.051.148.074.214.139-.116.339-.131-.074-.214zm1.3 14.9c.7-.1 1-.2 1-.2v-.3s-1.3.1-1.8.2h-6l.2.4s2.3.1 2.899.1c.601 0 3.101-.1 3.701-.2zm-5.1 2.3c.1.3 3 6.3 3 6.3l.3-.3-2.8-6.2h.6l2.5 5.7.1-.5-2-5.1h.7l1.7 4.2.2-.6-1.3-3.6.8-.3 1 2.9.3-1-.7-2.2.601-.2.399 1.4.4-1-.2-.9h.5s.1.6.2.2c0-.3.3-1 .3-1s-.4.2-.601.4c-.199.2-2.699.9-3.199 1.1-.5.2-2.5-.2-2.9-.2s0 .4 0 .4 0 .2.1.5zm2.1 6.1c-.3-.4-2.2-5.5-2.2-5.5s-.2.3-.1.6c0 .2.899 2.5 1.399 3.5.5.9 1.2 2.3 1.2 2.3l.2-.2c.001 0-.199-.3-.499-.7zm-1.7-17.9c.101 0-.399-.1 0 .2.4.3 1 .4 1.3.4.301 0 .2.3-.199.3-.4 0-.9-.1-1.4-.3-.4-.3-.7-.4-1-.5-.3 0-.5.2-.6.5-.2.3-.2.3-.2.4 0 .2.3.4.3.6-.101.2-.5.5-.4.7.2.2.3-.1.5-.2s.3-.2.601-.1c.3.1-.601.5-.7.6-.101.2 0 0 .5 0s.6-.2.8-.2c.2-.1.5-.3.8-.4.3-.1.8-.2.7 0-.2.2-1.3.3-1.2.5.101.1.4-.1.8-.1s.9.2 1.2 0c.3-.2 0-1.1 0-1.3 0-.2.101-.3.2-.5.2-.2-.2-.2-.9-.3-.702-.1-.702-.2-1.102-.3zm-.8-1.5c.2.1.4 0 .8-.1s.5-.1.7-.2c.2-.1.6-.1.7-.1s-.2.3 0 .4.5 0 .8 0c.2 0 .1-.2 0-.4s0-.3.1-.4c.101 0 .101-.4 0-.7-.199-.3-.3-.2-.5-.6-.199-.4.5-.3.801-.5-.2.1-.101-.2-.301-.2-.199 0-1 .2-1 .6 0 .3.4.7.601.8.2.2.2.4.2.4s-.5.2-1 0c-.4-.2-.2-.4-.601-.5-.399-.1-.6.3-.6.3s.1.3.1.4c0 .1-.1.2-.2.4s-.3.2-.6.2-.2.2 0 .2zm4.274-3.686a.267.267 0 0 0-.074.086c-.09.181-.017.209.072.433.009-.012.021-.019.027-.033.075-.148.039-.297-.025-.486z"/><path d="M288.8 39.5c-.2-.5-.2-1.2-.1-1.5.1-.3.3.3.6 1.1.3.7 1 .9 1.3 1 .3.1 0 .4-.3.6-.3.2-1 .3-1.5.3s-.1.2-.1.4-.801.1-.9.2c-.099.1.3.1 1 .2.8.1 1.3 0 1.9-.4.6-.4.3-2.2.199-2.5-.1-.3-.6-1.1-.6-1.4s.6-.4.6-.6v-4c0-.4.101-.8.2-1.1.101-.3 0-.7-.3-.6-.2 0-.2.2-.4.6-.199.4 0 .7.101 1 .1.3.1 3 .1 3.5s-.3-1.2-.399-1.7c-.101-.5-.2-1.2-.2-1.7 0-.4.2-1.6.3-2 .2-.3.5-1 .5-1.3 0-.3-.2-.5-.2-.5s-.2.1-.3.3c-.2.2-.2.4-.2.4h-.901l-.2-.5s-.101.1-.3.2c-.2.1-.2.3-.2.7 0 .4.1.3.1.6s.3.4.5.5c.2.1-.2.4-.3.7-.2.2-.2-.1-.3-.3-.187-.186-.371-.122-.558-.271a.352.352 0 0 0-.043.17c0 .3.101 3.7.101 4.1 0 .4.3.8.7.8.3 0 .399-.3.3-.6-.101-.3-.5-.3-.5-.5s.1-.3.3-.2c.2.1.8 1.3.8 1.7s-.3.2-.6 0-.7 0-1 .2c-.3.2.3 2.4.3 2.7 0 .4-.5.3-.6.5-.2.2.8.2 1.399.2.601-.099-.099-.499-.299-.999zm-.2-5.5c-.3.1-.3 0-.3-.4s.3-1 .3-1c0 .4.4 1.3 0 1.4zm.9.3c-.2.2-.2 0-.2-.3.1-.3.3-.8.3-.8 0 .3.1.9-.1 1.1z"/><path d="M288.1 31c-.01-.029-.018-.044-.027-.067-.115.164-.358.188-.173.467.016.015.029.018.043.03.079-.146.233-.202.157-.43zm69.7 37.3c.3 0 3 .4 3 .4l-.101-.3s-.399-.1-.899-.4c-.5-.4-.7-1.2-.898-1.5-.2-.4-.899-.7-.899-.7s1.1-1 .899-1.3c-.102-.3-.102-.9-1.399-1.2-1.301-.4-7.2-1.4-7.2-1.4l.399.4s.7.3.898.7c.102.4 1 3.2 1.2 3.6.102.4-.8.1-.8.1v.3l4.3.7-.101-.2s-.8-.3-.899-.5c-.101-.2-.398-1.2-.398-1.2s1 .4 1.601.8c.598.4.997 1.7 1.297 1.7zm-3-3.4-.5-1.7s.7 0 1.3.2c.7.1.899.4 1.102.9.3.5-.102.9-.399.9s-1.503-.3-1.503-.3zm-113 0-.1.4 7-2 .3-1.8s-1.101 1.4-2 1.8c-.9.4-1.601.3-1.601.3l.301-2.2s.8 0 1 .1c.3.1.399.6.399.6l.4-2.2s-.2.3-.601.7c-.399.3-1 .3-1 .3l.4-1.5s1-.5 1.6-.5c.7 0 .5.7.5.7l.602-.1.399-2s-2.199.7-3.5 1.1c-1.3.4-3.5 1.2-3.5 1.2v.3h.301s1.1-.3 1.1.3-.5 3.1-.8 3.6-1.2.9-1.2.9z"/><path d="m240 63.2.8 1.5 1.3-1.6-.7-1.3zm-3.4-.8V62s-.5.3-1.6.6c-1 .3-3.2.5-3.2.5v.3h1c.3 0 .3.4.2 1.1-.2.7-.4 3.2 3.1 2.2s2.8-3.5 2.9-3.8c.1-.3.3-1.3.3-1.3l1-.3v-.4l-3.4.9v.2s.9-.3.9-.1c0 .3-.3 1.8-.4 2.8-.199 1.3-2.399 2.3-2.3 1 .101-1.3.4-2.6.7-2.8.3-.3.8-.5.8-.5zm-26.9 5.2c-.4.5-1.801.7-1.801.7s3.601.3 4.101.4c.8.2 4.8.399 5.8-1.1.7-1.2.8-2.3.1-2.7-.699-.3-5.6-.9-6.6-.9s-.6.3-.6.3.699.1.5.5c-.2.4-1 2.2-1.5 2.8zm4.2-2.8s1.301.2 1.801.3 0 1.2-.101 1.7c-.1.5-.7 1.3-1.399 1.5-.7.1-1.9-.2-1.9-.2l1.599-3.3zm10.5 2.9c-.199.5-1.3.7-1.3.7l-.1.3s4.1-.101 5.5-.3c1.5-.3 2.1-.4 2.1-.4l.3-1.3-.3-.1s-.3.5-.7.8c-.8.6-3 .7-3 .7l.601-1.6s.7-.2 1.1 0 .601.6.601.6l.8-2.2s-.8 1-1.101 1c-.3 0-1.199-.1-1.199-.1l.399-1.2s1.2-.6 1.9-.4c.7.2.8.9.8.9l.3-1.4s-3 .5-3.7.6c-.699-.1-2.8 0-2.8 0l-.1.3s.899.1.7.9c-.201.8-.601 1.6-.801 2.2zm-5.2.3c-.7.3-1.2.3-1.2.3l-.2.3h4.7v-.3l-.9-.2 1.4-3.4 1.1-.1.101-.4-4.7.2v.4s1.1-.1 1.1.4-.1.6-.5 1.6c-.301.6-.301 1-.901 1.2zm148.4-.2c-.1-.5.102-.7-.698-2-.802-1.3-3.2-1.7-4.5-1.7-2.802-.1-2.899 1.1-2.602 2 .8 2.2 3 3.3 5.3 3.3 2.2 0 2.599-1.1 2.5-1.6zm-4.6-.1c-.2-.6-1.2-1.9-1.301-2.5-.199-.6.801-.7.801-.6.6.1 1.1.2 1.5.9.5.7.8 1.7 1.1 2.4.302.7.4.8-.6.9-.301 0-1.301-.5-1.5-1.1zm-13.801-1.3c.898-.1 1.898-.7 1.898-1.1 0-.4-.198-1.7-.3-1.9-.101-.1-1-1.7-2.2-1.9-1.101-.2-4.898-1.2-5.8-1.5-.101 0-.2-.1-.2-.1l.302.7s.898.3.898.7c.102.4.5 2.9.602 3.4.101.5-.899.1-.899.1l.1.4s4.8 1.2 5.599 1.2zm-1.599-4.3c.602.4 1 1.5 1.2 2 .3.4.5 1.7-.101 1.7-.602 0-1.5-.3-1.5-.3l-.102-.2-.697-3.3-.102-.4c.002 0 .702.1 1.302.5zm-6.3-2v-.4l-3.5-1.1.1.4s.698.6.8.8c.101.2.398 2.3.398 2.3l-2.698-4-3.2-1.1-.399-.1v.4s.899.6 1 1.1c.102.5.399 1.8.5 2.6.102.8-1 .4-1 .4v.4l3.3 1v-.4s-.601-.2-.601-.6c0-.4-.399-2.6-.399-2.6l3.5 4.5 1.802.5s-.7-3.9-.7-4.2 1.097.1 1.097.1z"/><path d="M391.8 70c-2.2.2-14.601 2.201-28.101.6-12-1.398-24.102-4.8-31.8-7.5-7.7-2.7-10.802-1.7-14.399.4-3.801 2.2-5.801 6.3-5.801 6.3s0-1.3.2-1.7c.101-.4.5-1.2.8-1.9.301-.7 1.7-2.3 2.101-3.2.5-1 2.102-5 2.3-5.9.049-.194.127-.441.23-.714-.179-.006-.33.014-.33.014l.1-.6.548-.128c.336-.682.796-1.382 1.354-1.772 1-.7 8.1-.1 9.8.2 1.7.3 15.3 4.5 22.5 6.3 7.2 1.8 15.399 2.3 15.8 2.2.399-.1.899.5.602.9s-.8.3-.8.3v.3s1.398.5 1.698.6c.302.1 1.2 3 1.4 3.7.3.7-.801.6-.801.6v.4l4.399-.101-.1-.3s-1-.1-1.101-.5c-.101-.3-.301-1.5-.301-1.5s1 .8 1.7 1.2c.8.5 1.899.2 1.899.2L375 69l-.9.6 4.7-.1-1.2-.6-.6-1.9.899-1.2 1.101.1.699 1.1.898-.1-1.3-2.8-2-.2s-.301-.7 0-.7c.3 0 1.199 0 1.699.1s1.2.4 1.4.6c.3.2 1.898 1.9 1.898 1.9l-1.2 1.4 2.305 1.9 1.8-1.898-1.5-1.4.5-.6-1.102-1.8s3.102.3 3.399.3c.3 0 .2-1.1.2-1.1s.398.2.7.2c.3 0 .5-.3.5-.3l.8.3s.601-.2.601-.4c.102-.2-.601-1.7-.601-1.7l3.2.9-6.5 4 3.5 1.1 8.3-4.5 1.2-4.3s-3.602 1.9-4.102 2.1c-.601.1-1.398-.8-1.398-.8s1.898-2.1 2.3-2.8c.5-.6.8-1.9.8-1.9s-2.6 1-3 1.1c-.399.1-2 .6-2 .6s.101-1.1.101-1.4c.102-.3.5-2.5.5-2.5s-.698.3-1.698.6-3.9 1.6-3.9 1.6l-.1-2.8s1.198-.4 1.898-.5c.699-.1 2.3-.1 3.399-.1 1.2 0 3.2.6 3.2.6s.1-.3-.302-1c-.5-.7-1.601-.8-2.198-1-.602-.3-2.302-.5-2.302-.5s1.302-1 1.899-1.2c.6-.2 2.2-.8 2.899-.9C395.1 47 396.3 46.3 395.3 46s-1.898-.1-3-.1c-1 0-2.898.4-2.898.4s1.898-.9 2.8-1.4c.898-.5 2.7-.9 3.3-1.2.601-.3 1.5-.4.601-.8-.898-.3-2.8-.5-3.8-.4s-2.601.4-2.601.4.3-1.8.398-2.2c.102-.4 1-2.8 1-2.8l-1.198-.5-2.7 2.6-.5-2.2-1.102.8-1 3-1.198-.8c-.302-.2-.602-1.2-.602-1.2l-.801.3s.601 1.7.601 2.1c.102.5 0 1.4 0 1.4l-.898-.1-.3-.2c-.302-.2-.5-.3-.7-.6s-.7-.2-1.102-.2c-.398 0-.698-.2-.698-.2s.6-1.1 1.1-1.7 1.301-1.9 1.301-1.9l-1.101-.4s-1 .5-1.399.8c-.398.3-2.801 2.1-3 2.5-.301.4-.7.6-.7.3s-.101-2.6-.101-3.3c0-.7-.8-1.3-.8-1.3s-.5.9-.602 1.4c-.101.6-.3 3.2-.3 3.5s-.2.8-.398.6c-.2-.2-.7-.5-1.4-1.2-.699-.7-1.6-1.5-1.6-1.5l-1.302.5s.102.4.5 1.1c.302.7.399 2.5.399 3.2 0 .7-.199 2.3-.199 2.3 0 .2-.5.5-.801 0-.3-.5-.8-1.6-.899-1.8-.198-.3-.5-.9-.601-1-.101-.2 0-.5-.399-.8-.3-.3-.601-.2-.601-.2l-.101-.2c-.101-.2-2.101-1.5-3.5-1.4-.801.1-3 .8-3.5 1-.5.2-2 .8-2.199.7-.2-.1-.899-.5-1.2-.5-.3-.1-1.8.5-2.199.6-.399.2-.5-.1-.399-.3l.801-1.6s-.2-.2-.5-.2c-.2-.1-.2-.4-.2-.4s.101 0 1.5-4.7c1.398-4.7-1.102-11-1.3-11.4-.899-2-3.5-5.4-3.5-5.4s.101-.3.199-.5c.199-.2.399-.8.699-.9.301-.1 2.399-1.5 3.301-1.8.899-.3 2.699.3 3.699.5.899.1 1.102-.6 1.102-1.5s.2-1.2.601-1.4c.3-.2 2.199-.8 2.199-.8v-.3s-2.399.5-3.1.8c-.701.3-.9 1.2-.9 1.6s-.1.7-1.1.4-1.9-.5-2.2-.5-2.899 1.3-3.2 1.5c-.3.2-.5 0-.601-.7-.101-.7-.5-1.7-1-2.2s-.801-1.6-.801-2.1V9.7l-1-.7s-.898 1.3-1.101 1.6c-.3.3-1.3 1.3-1.601 1.7-.301.4-.301 2.1-.301 2.1s-.699-.6-.898-1c-.2-.4.3-1.4.3-2s-.199-1.6-.199-2.2c0-.5-.2-1.2-.2-1.2l-1.2-.4s-.102.3-.302.8c-.3.4-.8 1.2-1.101 1.6-.3.4-.6 1-.6 1s-1.4-1.1-1.9-1.4c-.5-.3-1-.3-1-.3s-.399-.9-.899-1.2c-.398-.3-1.5-.5-1.5-.5s-1-.9-1.3-1.4c-.3-.5-1.398-.2-1.398-.2-.261-.467-.385-.69-.473-.826.14.359.573 1.226.573 1.226s.8-.4 1.3-.1c.3.2.899 1.8.899 1.8s1.3-.1 1.601.1c.399.3 1.2 1.5 1.399 1.6.2 0 1.101.2 1.398.4.302.3 1.2 1.2 1.302 1.3.1.1.198.3.198.3s.399.1.802.3c.5.2.698.9.698.9s1.102.1 1.302.4c.198.3.3 1.6-.4 1.1-.699-.4-.199-1.1-.699-1-.5 0 0 .6-.5.5-.398 0-1.2-.3-1.2-.3s.2-.9-.198-1.2c-.4-.4-.7-.8-.7-.5v1.3c0 .2-.7.2-1-.3-.399-.5-1.2-2.2-1.5-2.6s-.602-.6-.602-.5c-.1.1.2 1 .2 1.3 0 .3-.601.5-.8.2-.2-.3-.801-1.9-1-2.2-.2-.3-.4-.3-.4-.2s.102.9.102.9-1-.1-1.199-.6c-.2-.4-.4-1-.5-1.5 0-.5-.4-.9-.5-.8-.101.1.1.5.1.6s-.503.4-.904.1c-.399-.3-.699-1.1-.899-1.6-.2-.4-.398-.5-.398-.5V6c.101.2-.399.5-.899-.3-.5-.7-.301-1.1-.301-1.1s-.399.3-.5.4c-.102 0-.399 0-.699-.6-.301-.6-.5-1.1-.601-1.1 0 0-.102.3-.2.4 0 .1-.399.3-.602-.1-.198-.4-.3-1.3-.198-1.4 0-.2 0-.7.3-.2s.8.9.8.9.5-.3.801 0c.3.3.8 1.2.8 1.2s.7-.4 1.102-.1c.301.3.601.9.601.9s.743-.08 1.025.133a2.15 2.15 0 0 0-.128-.133c-.3-.3-1-.2-1-.2s-.203-.3-.403-.7c-.4-.6-1.3-.3-1.3-.3s-.301-.5-.601-.9c-.301-.3-.801-.3-1.101-.3 0 0-.3-.8-.601-.9-.3-.2-.7-.3-.8.3-.102.7.101 1.4.3 1.9.2.5 1.101.7 1.398.7.302 0 .302.3.5.9.302.6 1 .8 1.399.8.301 0 .301.4.601 1.1.305.7.905.4 1.505.7.602.3.102.7.602 1.3.5.6.898.5 1.398.5.4 0 .302.7.802 1.2.398.5.898.6 1.101.6.3 0 .6.5 1 1 .3.5 1.399.7 1.399.7l-.399.4s-1.301.1-1.9-.1c-.6-.2-1 0-1 0s.302.5.5.9c.3.3 1.1 1.5 1.1 1.5l-.8-.1c-.801-.1-2.101-.9-2.101-.9s-.7.1-.5.6 1.102 1.8 1.3 2.1c.2.3-.398.6-1.198.5-.802-.1-1.4-.5-1.9-.7s-1.3 0-1.699 0c-.398 0-1.301 1.3-1.7 1.5-.398.2-1 .6-1.601.8-.6.2-1.1-.1-2.3.5-1.2.6.3 2.7.101 3.1-.2.4-1 1-.5 1.4.5.4 1.5 2.2 1.5 2.2s-.305 1-1.805 1.6c-1.6.6-1.6 2-1.8 2.8-.2.9.3 3.2.3 3.2l1.2-.3s.3-.9.398-1.4c.102-.5.399-1 2.602-.8 2.2.2 2.398-.7 2.8-1.6.301-.9.9-2.9 1.4-3.2.398-.3 1-.4 1.6-.2.601.3 1.7.2 2.301-.5.602-.7 1.102-.9 1.602-.7.5.2 1.398 1.2 1.398 1.2s0 .8.3 1.5c.302.7 1.602 1 1.602 1l.101 1.7-1 .2s-.8.5-.898.9c-.2.4-1.801 1.4-1.801 1.4s-.5-.9-.699-1.6c-.2-.6-1.102-1.8-1.102-1.8l-1.898.1s-.2 2.1-.102 2.8c.102.7-.3 3.8-.3 3.8l1 1.2s-2.399.3-6-.5c-1.801-.4-6.899-2.7-6.899-2.7s-.5-1.8-.699-2.2c-.2-.4-1-2.8-1-2.8s1.699-1.7 2.101-2.1c.4-.4 1.899-2.2 1.899-2.2h-2.102c-.3 0-1.398-.1-1.398-.1s.898-1.3 1.3-2c.398-.7 1.801-3.5 1.801-3.5s-1.801.4-2.2.7c-.3.3-1.8.9-1.8.9s.3-2 .3-2.4c.102-.4.399-2.2.399-2.2s-1.8 2.1-2.2 2.6c-.3.5-.8.9-.898.5-.102-.3-.5-4.9-.5-4.9l-3.699 4.8-2.801-2.1s.301-.8.101-1.1c-.3-.3-.601-.7-.601-.7l1.601-1.1s1 .4 1.5-.3c.399-.7-.5-1-.5-1l.399-.4s1.398.7 1.801-.6c.3-.8-.899-1.3-.899-1.3l.3-.4s1.602.3 1.602-1.6c0-1.1-1.602-.5-1.602-.5l-.31-.5s1.199-1 .1-2c-.8-.7-2.1.3-2.1.3l-.2-.3c.102-.2.399-1.1-.601-1.5-1.101-.4-1.601.9-1.601.9 0-.2.102-1.3-1-1.3-1.199.1-1.199 1.3-1.199 1.3h-.301s.102-.8-1-.9c-1-.1-1 .5-1 .5l-.3-.3L301 4.1s-.5.4-.9.7c-.3.3-2 1.8-2 1.8V1.5l-1.2.2.301-1.2-8-.3.199 1.5-1.2-.3-.1 4.6-2.2-1.7-1.3 2-.5-.3s-.1-1.2-1.6-1.1c-.9.1-.9 1.3-.9 1.3h-.4s0-1.6-1.4-1.4c-1.5.2-.7 1.5-.7 1.5h-.3s-.7-.9-1.6-.4c-1 .4-.301 1.6-.301 1.6l-.3.1s-.399-1-1.6 0c-1.101.9.3 1.7.3 1.7l-.299.2s-1.3-.2-1.3.9c0 1.6 1.6 1.4 1.6 1.4l.1.4s-1.399.1-1 1.2c.301 1.1 2 .7 2 .7s-.3.7-.1 1.2c.3.5 1.5.4 1.5.4l1.2 1.4s-.2.3-.4.8c-.3.5 0 .8 0 .8s-1.3.7-1 1.4c.3.7-.399.6-1.2.1-.8-.5-1.8-2.1-2.199-2.5-.301-.4-1.2-1.4-1.2-1.4s-.2.3-.2.8c0 .4-.1 4.4-.1 4.4s-2.2-1.4-2.601-1.8c-.399-.4-1.2-.6-1.2-.6s.3 1.6.7 2.2c.3.7 1.2 2.9 1.2 2.9s-1.4-.7-1.7-.8c-.3-.1-2.6-.6-2.6-.6s.3 1.2.899 1.8c.601.6 2.3 3.1 2.3 3.1l-2.699.4 3 3.3s-.301 1.5-.4 1.7c-.2.3-.7 2.1-.9 2.5-.2.4-2.7 1.6-3.4 1.7-.7.1-.7-.3-.9-.9-.3-.6-.7-1.8-1.2-2.3s-2.1-1.3-2.399-1.7c-.299-.4-.3-1.6-.4-1.9-.2-.3-.7-1.1-1.2-1.8s.101-1.3.801-.9c.699.3.8 1.1 1.5 2.2.699 1 2 1.3 2 1.3s-.301-.6-.7-1.3c-.3-.7.2-1.7-.101-2.2-.3-.4-1.6-1.6-1.6-1.6l.7-1.5s-1-.4-1.601-.6c-.6-.2-1.199-.7-1.699-1.1s-.9-.7-.4-.7.9.3 1.9.2 1.8-.4 1.8-.4-.5-.3-1.101-.6c-.6-.3-1.399-1.5-1.399-1.5s.5-.3.7-.8l.5-1s-.5-.2-1-.3c-.5-.2-1.601-.4-2.2-.8-.5-.3-.101-.5-.101-.5s.601 0 1.5-.2c.9-.2 1-2.1 1-2.1l-.5-.3s-.899.4-1.6.7c-.8.3-1.6.1-1.6.1s-.7-.5-.7-.9c0-.3.6-.8.6-1.4s-.5-1-.5-1-.8.6-1.399.9c-.601.3-1 .2-1.601.2-.6 0-.5-.2-2.5-.3-2-.1-1 .1-1.5.4-.399.3-1 .6-1 .6s-.3-.4-.3-.9c.1-.4.3-.9.3-1.5 0-.5-1.6-1.7-1.6-1.7s.3-.8.2-1.5c-.2-.7-1.7-.4-1.7-.4l-.7-.3s.9-1.2.3-1.9c-.699-.7-1.8.1-1.8.1s-.1-1.4-.9-1.5c-.9-.1-1 1.1-1 1.1l-.9.3s-.3-.6-1.3-.3c-.9.3 0 1.7 0 1.7l-.6.5s-.699-.2-1.1.5c-.401.7.3 1.5.3 1.5l-.7-.1s-.3-.9-.3-1.4c-.1-.4-.3-1-.3-1l-.3.3c-.3.3-1.1 1.2-1.1 1.2l-.9-.2 1.2-2.6-5.4 2.7 2.3.9-.4 1.1s-1.801-.4-2-.1c-.2.3.899 1.4.899 1.4h-1s-.1-.9-1.1-.5c-1 .3-.5.9-.5.9l-.7.3s-.2-.3-.5-.3-.4-.5-1.4.7c-1 1.2.9 1.4.9 1.4l-.1.9s-1.4.8-.9 1.4c.4.6 1.3.2 1.3.2l.7.4s-.3.9.4 1c.699.2.8-.4.8-.4l.5.3s-.3.7.3.8c.5.1.9 0 .9 0s-.9 1.7-1.601 2.8c-.6 1-1.5 3.5-1.7 3.9-.3.4 0 .8.4 1.3s1 1 1.4 1.2c.399.2-.2.4-.301 1-.1.5.2.8.2.8s-.5 1.1-.399 1.8c.1.7 1.5 1.9 2.1 2.2.6.3 1.1.5 1.6.9.4.3.9 1.6 1.4 1.4.4-.2 0-2.3 0-2.3s1.2-.8 1.4-1c.199-.3.5-.1.3.5s-.3 1.6-.2 2.1c.2.5 1.1 1.3 1.6 1.3s-.899.9-1.199 1.1c-.301.2-2.101.2-2.7.7-.8.7-1.601 1.6-2.7 1.8-1.1.2-1.2.2-1.2.2s.101.3.7.6c.6.3 1.7.3 2.8-.3 1.101-.5 1.601-1 2.4-1 .899 0 1.5.5 1.1.7-.3.2-1.5.6-1.7.7-.3.1-1 .6-1.199.6-.301 0-2.101.7-2.601.9-.5.3-1.399.7-1.2 1 .2.3 2.9 1.5 2.9 1.5s-.3.7-1 1c-.6.3-2.3.3-2.2.6.101.3.5 1 .5 1s-.6.1-1.3-.1c-.7-.2-1-1.4-1-1.4s1.5-1.3.7-5.7c-.9-4.7-3.101-5.8-5.101-6.5-2.699-.9-9.199.5-10.1.6-.9.1.5-2.2-1.4-3.5-.8-.5-2.5 0-2.5 0s-.8-.6-1.1-.9c-.3-.3-.8-1.3-2.7-1-.5.1-2.3.9-2.899 1.1-.5.3-3.4 0-4-.3-.601-.3-1.2.1-1.2.1s.399 1.6.8 2c.3.3 1.6 1.5 2 1.6.3.1 2.4-.3 3.2-.2s1 1.6 1 1.9-.5 1.3-.601 1.9c-.1.6.9 2.1 1.301 2.5.399.4.199.7-.9.8-1 .1-.9 1.3-.9 1.3s-.5-.4-1.1-.7c-.6-.3-1.1.3-1.1.3l.1-.8c.1-.8-.8-1.8-1.1-2.1-.301-.3-1.601-1.1-1.7-1.8-.2-.7-.3-1-.7-.8-.3.3-.3 1.2-.3 1.2l-.3.6-.4-.2.2 1.1-.4-.1.2 1.1h-.4s.101.5.301 1c.199.5.3.9.6 1.6.3.6.3 1.4.5 1.7.2.3.1.9-.5 1-.6.1-.4-.6-.5-1.3-.1-.7-.8-1.4-.8-1.6 0-.3-.7-.5-.9-.5-.3 0-.8-.6-.8-.6s-.2.6-.4.3c-.3-.3-.899-.6-.899-.6s-.2.6-.601.1c-.4-.5-.9-.4-.9-.4l.1.7s-.3 0-.8-.3c-.4-.3-1.9-1.2-1.9-1.2s.101.8-.3.4c-.4-.3-1.4-.6-1.4-.6s.1.9.5 1.6c.399.8 0 .7.399 1.3.4.6 1 .8 1 .8L187 43l.7.8s-.301.4.1.8l.8.6s-.2.9.5 1.1c.7.2.9 0 .9 0s-.3.6.3.6c.5 0 1.3-.3 1.3-.3v.5s.3-.1.8-.2 1.2-.4 1.601-.7c.399-.3.8-.2 1.2-.2.399 0 .1.8 0 1-.101.3-.601.3-.601.3h-.899c-.301 0-.801.3-1.301.3-.5.1-.6.2-1 .3-.399.1-1 .2-1.199.3-.301.1-.5.1-1 0s-.4.3-.4.3-.8-.1-1-.2c-.3-.1 0 .5.3.6.3.1.601.8.601.8s.3.7.6.8c.3.1.9.3 1.2.3.3 0 0 .5 0 .5s.8.1 1.1.2-.7.7-.2.7 1.301.3 1.301.3l.3.5c.3.5.6.8 1.5.6.899-.2 2.1-.4 2.1-.4l-.399.6c-.4.6-.601 1.9-.301 1.9.301 0 1.601.2 1.601.2s.6 0 .6.3c0 .5-.6.5-1.399.5-.801 0-1.5-.3-1.5-.3l-.4.4s-.6-.4-1-.3c-.3.2-.3.9-.5.9-.3 0-.8-.1-1 .2-.3.3-.5.9-.5.9s0 .3.2.5c.2.3.3.5.3.5s-.4 0-.4.3 1.601.6 1.601.6v.7c0 .4 1 .2 1 .2s.1.3.5.3c.298 0 .648-.276.811-.418-.207-.101-.21-.482-.21-.482s-.7.3-1.399.4c-.601 0-.5-.5-.5-.8 0 0 2.199-1.2 2.899-1.4.601-.3 3.101-2 3.4-2.2.3-.1.8.2.7.4-.2.2-.801.7-.801.7s.2.9 0 1.4c-.199.5-.6 0-.6 0s0 .4-.3.8-.7 0-.7 0-.843 1.213-1.259 1.287c.098.19.382.611.858.213.5-.5.5-.9.9-.9.4-.1 1.8.3 2.2.3.3 0 .6.5 1 1 .3.5 1.1.3 1.1.3v.9c0 .6 1.101 1.1 1.5 1.1.3 0 1.8-.4 2.3-.6a.416.416 0 0 1 .166-.029c.083-.809.868-1.204 1.035-1.871.2-.8.3-1.6.3-1.6l.5-.1s0 1 .7 1.6c.7.5.4 1.8-.3 2.4-.65.465-1.724 1.167-2.114.303-.526.112-2.984.997-2.984.997l.899 2.7 3.601-1.7-.5-1.5s1.399-.2 2-.5c.6-.3 1-2.3 1-2.3s11.3.7 15.5.2c4.199-.5 9.8-2.4 11.699-2.9 1.9-.5 16.7-5.5 17.601-5.6.899-.1 2.1.9.1 1.6-2 .6-5 1.6-5 1.6l-.399 2.8s2.1-2.3 2.6-2.8c.5-.4.4 0 .4.4s-.601 2.9-1 3.7c-.301.8-1.101.7-1.101.7v.5s1.601-.4 2.5-.8c.9-.3 2.8-.9 2.8-.9v-.4s-1.399.4-1.3.1c.101-.3.601-3.1.7-3.5.1-.4.4-.7.8-.8.3-.1.8.6.8 1V58l1.301-.3v-.3l.6-.1.3.6s.091.066.214.142c.046-.191.201-.864.286-1.542.101-.8-.1-.7-.2-.6-.1.2-.5.8-.8.9l-.3.1s.4-.6.4-1.1-.4-1.1-.4-.8-.4.4-.7.6l-.3.2s.4-.8.4-1.2 0-.7-.301-.6c-.3.1-.699-.3-.6-.6.1-.4-.8-.1-.5-.8.3-.7.8-1 .8-1s-2 0-2.6.3c-.7.3-2 1-2.8 1.1-.801.2-.601-.5-.101-.8.5-.3 2-1.4 2-1.4s-.6-.2-.899-.2c-.301 0-2.2.9-3 1.4-.801.6-2.4 1.7-3.301 2.2-.899.5-1.3.5-1.899.6-.5.1.5-.9 1-1.3s2.1-1.8 2.5-2.2c.5-.4-.5-.1-.8.2-.301.3-3.9 3-4.4 3.3-.5.3-1.4 1-2.1 1.2s-1.601 0-1.601-.3c.101-.3.7-.9 1.101-1.4.399-.5 3.1-2.6 3.199-2.7.101-.1-.1-.3-.5-.2-.3.1-2.8 2.1-3.3 2.2-.5.2-1.2-.1-1.6-.4-.5-.3-.5-.9.1-1.3.601-.5 3.2-2.4 3.7-2.8.6-.4 1.1-1.4 1.3-1.3.2.1.5.6.601 1.5.199.9.199 1.6.199 1.6h1s.301-1 .601-1.4c.3-.4.6-1.4.899-1.4.301 0 1.4-1.1 1.4-1.8s.5-1.7.7-1.4c1 0 1 1.9 1.6 2.2.601.2 8.2 1.4 9.601 1.7 1.399.3 5 1.8 5.399 2.8.4.9 1.3 2.7 1.101 3.4-.2.7-.4.6-.801 1.1-.399.5-.5-.3-.3-.6.3-.3.601-.5.601-.9.1-.4-.301-.8-.5-.5-.2.4-.601.5-.7.5-.2 0 .2-.6.399-.9.2-.3.301-1.2 0-.9-.3.3-.5.4-.699.5-.301.1.1-.7 0-.9-.101-.2-.7-.1-.801-.3-.199-.2-.899-.6-1.3-.8-.399-.2-.899.3-.6.4.3.2 1.3 1.2 1.6 1.7.3.5.9 2 .601 2.5-.215.428-.427.847-.604 1.094.111-.004.196.006.196.006s.5.7 1.2.5.5-.3.8-.4c.3-.1.4-.2.9-.3.399-.1.6 1 .6 1s.5.1.9.1c.3 0 .3-.6.6-.6s.9.8 1.3 1.1c.4.3 1 .9 1.601 1.6.6.6 4.199 4.8 4.199 4.8l.5 2.2s-2.399-2.7-6-5.3c-3.5-2.7-10.7-.4-12.9.2s-22.9 7.9-30.5 8.5c-7.601.5-21.3-.5-23-.602-1.7-.1-9.101-.6-10.8-.8-1.7-.2-4.9-.9-4.9-.9l1.3 3.299s20.601 2.199 29.7 1.899c9.1-.399 11.2.601 29.5-5.4 16.9-5.6 16.8-4.7 19.8-3.8 1.9.6 4.101 3 5.101 3.8.899.8-.2 2.5-1.4 1.3-1.4-1.4-4.6-4.3-8.8-3.4-4.3.9-7.5 2.7-7.5 2.7l1 1.6s5.899-2.8 8.2-2.2c2.399.6 5 1.6 5.899 3.4.9 1.8 2.7 2.8 4.4 1.5 1.7-1.301 1.899-3.5 2-4.2.1-.7-.4-3.398-.4-3.398s1.2 1.7 1.5 2c.3.3 1.3 1.2 1.3 1.2l-.399.4s-.7.2-.9.7c-.2.5.7 2.3.7 3.3v1.699l.8 1.399s1.7.101 2.601.199c.899.103 2.5.899 3.899.2 1.4-.7 1.101-1.5 1.101-1.5l.899-1.399s4.101 1.399 5.5 1.601c1.4.201 5.5.602 6.5.5 1-.101 1.5-.898 1.7-1.601.2-.698-.2-1.301-.2-1.301l3.4-2.1s1.6.4 2 .2c.399-.2 1.399-1.4 1.699-1.9.2-.4-.199-2-.199-2l1.199-.9s-.102 2.4-.102 3.5c0 1.199.399 2 1 2.5.602.5 3.5 1.699 4.7.6 1.2-1.099 4.602-4.8 8.3-3.8 3.7.899 6.102 2.2 6.102 2.2l1.301-2.2s-5.801-3-8.4-2.7c-2.6.4-6.398 1.8-7.698 3.7-.602.8-3.102.1-1.602-1.2 1.399-1.2 6.3-5.2 9.899-4.5 4.2.8 20.101 6.2 21.898 6.7C353 72.6 365.9 74 370.4 74.4c10.198.898 26.8-1.9 26.8-1.9l3.101-3.899C400.3 68.6 394.3 69.8 391.8 70zm-36.2-11.5c-.398.5-1.6 1.1-1.898 1.3-.199.2-.8.4-1 .4-.199 0-1.602-.4-2-.6-.399-.2-.5-.6-.5-.6s1-.2 1.301-.4c.3-.2.5-.6.199-.7-.3-.1-1-.6-1.199-.6-.2 0-1 .3-1.4.4 0 0-1.398.4-2.198.3-.802-.1-14.102-4.2-14.399-4.3-.2-.1.601-.7.601-.7l-.199-.5-1.301.7-.699-.5 1.398-.8-.2-.5-2.1 1.1-1-.3 2.399-1.2-.399-.3-3.4 1.3-.898-.2 3.7-1.7-.7-.3-5.199 1.9-1.2-.1s.802-.5 1.2-.7c.399-.2 3.399-1.2 4-1.8.601-.5.8-1.4.8-1.4l1.301.4s2.101-1.1 2.5-1.4c.5-.3 1.399-.8 1.399-.8v-1.7l2.5.3s.8-.6 1-.7c.3-.1.8-.1.8-.1l.102-1.6h.898l-.2 1.8.302.3s.101-.6.198-.8c.102-.2.5-1.3.5-1.3l.7.2s-.2.9-.3 1.2c-.101.3-.101 1-.101 1l.3.2s.398-1 .5-1.3c.101-.3.3-.7.3-.7l.7.3s-.3 1.3-.3 1.6v.6l.3.2.8-1.5.5.5-.5 1.4.2.2s.3-.4.398-.6c.102-.1.399-.4.399-.4l.5.4s-.5.8-.6 1.1c-.2.3-1.102 2-1.302 2.4-.3.4-.698 1.2-.698 1.2l-.602-.4s.399-.8.5-1.2c.102-.4.199-.7.199-.7s-.699-.5-.8-.6c-.102-.1-.399-.2-.399-.2S341 48.6 341 48.9v.3h-.699s.102-1.5.102-2-.102-1-.2-1.1c0-.1-.602-.4-.602-.4l-.698.5s.198.9.3 1.2c.101.3.2 1 .101 1.3-.101.3-.2.8-.2.8l-.398.1s.101-1.4-.102-1.8c-.101-.4-.198-.7-.3-.8-.101-.2-.101-.4-.101-.4l-1 .5s.2.6.2.9c0 .4 0 .8-.102 1-.101.2-.2.8-.2.8h-.601s-.1-1.3-.1-1.5c0-.3.1-.9.1-.9l-.899.5s.302.6.2.9c0 .3-.101.9-.801 1.3-.699.5-1.1.6-1.1.6s.3.6.5.7c.198.2.8.5.8.5s2.3-1.6 3.601-1.3c1.3.3 2.102.9 2.699 1.6.601.7 1.601 1 1.9 1.1.3.1 3.8 1.4 4.5 1.5.698 0 1.898.3 2.5 0 .6-.3 1.5-.7 1.898-.7.399 0 1.199.2 1.8.9.702.7 1.902 3 1.502 3.5zm-27.7-12.7c-.2-.2-.399-.7-.399-.7s.6 0 1.199.8c.5.7.2 1.9-.399 2.4-.601.5-2.5 1-3.8 1-1.2 0-1.2-2.9-1-3 .199-.1.399.8.8 1 .2.4.7.6 2.5.1S328 46 327.9 45.8zm4.9-2.6c-.101-.3-.2-.7-.2-.7s.602-.1 1.102.9c.601 1.2.101 1.5-1.7 2.6-1.699 1.1-1.6.9-2.199.6-.601-.3-1.101-1.6-1.101-1.9 0 0 .7.5.898.7.399.2 1.302-.5 2-.8.7-.4 1.3-1.1 1.2-1.4zm.899-1.3.398-.4 1.102.6s1.601-1.8 1.898-2.3c.302-.5 1.2-.4 1.102.5 0 .9-.399 1.6-.699 2.3-.301.7-1.601.9-2.5.4-.9-.6-1.301-1.1-1.301-1.1zM347.8 51l-.7 1.4-1.198-.6s1.1-1.6 1.3-2.1 1-2.2.898-2.2l.7.7s-.9 2.6-1 2.8zm1.6.2c.101-.3.698-1.8.698-1.8l.602.2s-.399 1.4-.5 1.8c-.102.4-.699 1.7-.699 1.7l-.801-.2c-.001 0 .499-1.3.7-1.7zm-3.701-2.3c-.3.6-1.102 1.9-1.102 1.9l-.8-.5s.899-1.9 1.199-2.5c.2-.6.9-2.1.9-2.1l.898.7c.006 0-.694 1.8-1.095 2.5zm11.901 7.2c-.398-1.5-.898-2.5-.5-3 .302-.5.7-.8 1.102-1 .398-.2 1.101-.2 1.101-.2s.2.2.2.3c0 .1-.101.2-.101.2s-.7.3-.802.3c-.1 0-.1.2-.1.3s.699 2.4.8 2.6c.102.2.399.5.8.6.4.1.7.1.7.1s.399.5.102.6c-.302.1-1.5.5-2 .7-.502.2-.902 0-1.302-1.5zm2.5-3.6c0-.2-1.5-3.1-1.6-3.3-.101-.2-.301-.1-.4-.1-.198 0-1.3.4-1.3.4s-.3.1-.398-.1c-.102-.2.101-.4.101-.4s1.399-.5 1.699-.6c.301-.1 1.101-.3 1.601.5s1 2.5 1.2 3c.199.5-.101 1.3-.5 1.4-.399.1-.801.3-.801.3l-.3-.4s.601-.3.698-.3c.099 0 0-.3 0-.4zm1.5 8.3c.102.2-.3.5-.5.6-.198.1-.698.3-1.1-.4s-.601-1.6-.101-2.2c.5-.6 1-1.1 1.398-1.5.399-.4 1 .4.899.3 0 .3-.301.5-.5.7-.2.2-.602.8-.5 1.3.104.5.304 1 .404 1.2zm.8-1.1c-.4.2-.9-.4-.4-.6.6-.3.8-1.1.6-1.6-.198-.6-1.198-2.2-1.198-2.2s-.899.3-1 0l-.2-.4s.601-.4 1.2-.6c.5-.2.8 0 1 .1.198.1.898 1.7 1.3 2.6.3.9.3 1.6 0 1.8-.302.2-.902.7-1.302.9zm1.799 1.8c-.199-.3-.102-.5-.3-1-.2-.5.5-.8.698-.3 0 0 .302.6.5 1.1.102.6-.697.5-.898.2zm10.901-1.7s-.5-1.9-.6-3c-.101-1.1-.5-2.4-.5-2.4s1 .7 1.199 1c.2.3.601.8.601.8s1.399-1.5 1.7-2.3c.3-.8 1.399-3.2 1.399-3.2l.198-.2.2.4v2.5c0 1.2-.3 2.1-.3 2.1s1.6-.1 2.3-.1c.602 0 1.399.2 1.399.2s-1.602 1.9-3.3 2.8c-1.698.9-4.296 1.4-4.296 1.4zm8.4 2.5c-.601-.1-3-.9-3-.9s1.3 1.2 1.699 1.9c.398.7 1.101 2 1.101 2l-.3.2s-1.801-2-2.601-2.5c-.802-.5-2.899-2.1-2.899-2.1s1.5-.8 2.3-1.2c.8-.4 2.3-1.4 2.3-1.4l.302.1-1 1s2.398 1.7 3 2.2c.601.5.8.8.8.8s-1.102 0-1.702-.1zm11.4-6.6c-.102.3-1.102 1.7-1.602 2-.601.3-2 1.5-2 1.5s3 2 3.399 2.2c.398.2-.399 1-.7.8-.3-.2-4.899-2.3-5.199-2.4-.398-.1-.801-.3.3-1 1.101-.6 5.802-3.1 5.802-3.1zm-8.4.3c.399-.5 4.1-1.9 4.1-1.9s-.398 1.3-1.5 2.4c-1.1 1.1-3.6 3.1-3.6 3.1l1.899 1.1.3 1.2s-1.8-.8-2.602-1.3c-.898-.5-2.101-.7-2.101-.7s.2-.7.5-2.1c.301-1.4.899-5.3.899-5.3l.899 4.3c.006 0 .706-.4 1.206-.8zm4.9-9.5c1-.1 2.898-.2 2.898-.2s-2.2.9-2.898 1c-.602.1-2 1.3-2.5 1.4-.5.1-.5-1.6-.5-1.6s2-.5 3-.6zm-4.4-3.2s1.8-2.6 2.1-3.4c.4-.8 1.4-1.9 1.4-1.9s-.5 2.3-.601 3.2c-.2.9-1 2.5-1 2.5s3.398-.2 3.698-.2c.2 0-1.698.7-2.101 1-.4.3-2.8 2-3.399 2-.601 0-1.101-.4-1.698-1.2-.7-.7-1.602-2.3-1.7-2.8-.102-.5-.102-1.2-.102-1.2l3.403 2zm-11.4 2.3c.2-.5.102-1.4.2-2.2.102-.7.2-1.3.8-1.5 1.2-.5 1.802 1.5 1.802 1.5s1.101-.4 1.601-.4c.6 0 .699 1.3.699 1.3s1.2-.3 1.7 0 .101 1.4.398 1.3c.3 0 .8-.2 1.602.1.8.2-.102 1.4.5 1.4.601 0 1.101.2 1.198.7.102.5-.6.9-.1 1.1.5.2.199 1-.601 1.3-.802.2-1.7 1.4-1.7 1.4l-1-.3s.5-.8.801-1c.199-.2 1.199-.8 1.199-.8l-.5-1.1s-.602.8-1 1.1c-.399.4-1.699 1.2-1.699 1.2l-.5-.3 1.699-1.7c.301-.4.801-1 .801-1l-.9-.5s-.3.7-.6 1l-1.5 1.5-.4-.1s.4-1.3.802-1.7c.398-.4.698-1.8.698-1.8l-.5-.2s-.398.8-.8 1.4c-.5.6-1.7 1.8-1.7 1.8l-.5-.3s.5-1.3.802-1.7c.3-.5 1-1.7 1-1.7l-.602-.2s-.7 1.1-1 1.6c-.2.5-1 1.3-1 1.3l-.601-.1s.601-1.1.8-1.4l.801-1.6-.601-.3s-.102.5-.399 1.1c-.3.6-1.3 2.2-1.3 2.2l-1.4-.3s.8-1.5 1-2.1zm-1.7 3.6c2 .3 3.601 1.5 3.898 2s-.398.3-.398.3l-.802-.3s-.5.7-.8 1c-.301.3-.301.6-.301.6l-1.699.1-1.2 1 .802-1.7-.802-.4-.8 1.4-.301-.6.2-1.6v-.1H370.1s1.8-2 3.8-1.7zm-3.701-8.6s.301.1.5.5c.2.4.2.2.7.6.5.3 1.101 2.4 1.398 3.1.199.7.399 1.8.199 2.1-.199.2-1.199.6-1.899.6-.698 0-.3-.7-.3-1.3 0-.7-.398-3.5-.601-3.9-.196-.4-.096-1.4.003-1.7zm-12 4.7c.301 0 .398-.5.601-.7.2-.2 1.602-1.2 3.3-1.8 1.7-.6 3.602.9 4.4 1.2.699.4 1.6 5.3 1.899 6.7.398 1.4 2.898 6.7 3.198 7.2.302.5 1.802 1.6 1.802 1.6s.198 1 .5 1.6c.3.6 2.3 3.8 2.601 4.6.3.9 0 1-.5.7-.4-.3-2.301-2.9-2.4-3.1-.1-.3-.698-.4-.5.1.102.5.602 1.7.802 2.1.198.4.898 2.1.898 2.1l-.8-.1c-.9 0-2.4-1.3-3.5-2.4-1.101-1.1-.9-1.8-.601-2 .3-.2 1.5-.8 1.5-.8l-.2-.6s-1.8.5-3 .3-.602-1.2-.3-1.3c.398-.1.698-.2 1-.2.3 0 0-.6-.2-.8-.2-.2-.7-.2-1.399-.2-.7 0-.8-.6-.3-.8.399-.2.899-.6.899-.6l-.302-.9s-1-.3-1.601-.4c-.601-.1-.601-.6-.3-.8.3-.2 1.2-.7 1.2-.7l-.2-1.4s-.602 0-1.3.1c-.602 0-.802-.7-.5-.9.3-.2 1.398-.9 1.398-.9l-.301-.9s-1.199 0-1.8.1c-.602.1-.7-.4-.5-.7.199-.3 1.8-1.5 1.8-1.5l-.101-.7s-1.5.7-2.199.9c-.602.3-.301-.8 0-1.1.3-.4 2.199-1.3 2.199-1.3l-.101-.7s-2.7.4-3.7.4c-1-.1-1.5-1.6-1.5-1.6s-1.199.8-1.898 1c-.602.1-.5-.1-.602-.4.009 0 .509-.6.608-.4zM357.4 48s-.102-.5-.899-.5c-.601.1-1.301.1-1.301 1.5-.102 1.4 1.801 1.6 1.801 1.6s0 1-2 .5c-.801-.2-1.5-.9-1.5-2.6s2-2.2 3.1-2.1c1.1.1.999 1.5.799 1.6zm-12.5-30.5c.198-.3.8-1.4 1.101-1.8.3-.4.6-2.6.6-3.1s.5-1.2.602-1.4c.101-.3.7-1.4.801-1.4.199 0 .399.7.199 1-.102.3-.199.5-.199.6s1.199 3.7 1.3 4.2c.102.4.102 1.5-.101 1.8 0 0-.602 1.3-1.5 1.7-.602.5-1.3.1-2.2-.4-.804-.5-.804-.9-.603-1.2zm-2-5.5c-.2 0-.399-.1-.602-.5-.2-.5-.601-.8-.5-1.1 0-.3.5-.9.602-1.2 0-.2-.102-.6.101-.7.1-.1.5-.1.699-.2.2.2.5 1.1.5 1.3 0 .3.398 2.7-.102 2.6-.498-.1-.598-.2-.698-.2zm-9.034 4.396a.6.6 0 0 1-.167-.097c.029-.027.088.018.167.097.416.186 1.409.388 1.833.304.5-.1 2.101-1.4 2.601-1.6.602-.2 2.102-.4 3 0 .899.4 1.3.5 1.399.6.2.1.5.3.801.5.3.2.5.5.5.5h-2.5c-.601 0-3.9.3-4.4.5-.5.1-2 .2-2.398 0-.292-.144-.631-.598-.836-.804zM328.3 28.6c-.2.6-.2 1-.601 1.8-.399.8-1.3.9-2.102.9-.8 0-2.198.1-2.698.4-.5.3-.802.5-.7-.1.2-.6.5-.9.8-1.2.301-.3 1.5-.7 2.399-1.1.899-.4.899-1.2 1.199-1.7l2.2-.2c.003 0-.297.6-.497 1.2zm.6-2.8c-.602 0-1.602-.2-2.302.6-.698.7-1 .2-1.198-.1-.2-.3-.802-1-1-1.5-.2-.5.198-.8.101-.8.199-.1.8.8 1 1.1.199.3 1.399-.4 1.8-.5.399-.2.8-.4 1.399-.1.5.2 1.398.6 1.398 1s-.598.3-1.198.3zm7.5-1c-.302-.6.101-3.2.101-3.2l-.7-.2s.102.4-.3 1.3c-.4.9-.9 1.3-.9 1.3s0-1.3-.1-1.8C334.4 21.7 334 21 334 21l-1 .4s.3 2.7.199 3.3c-.102.6-.3 1.6-.8 1.7-.602.1-.899.1-.899-.2 0-.3.5-.5.699-.9.2-.4.101-1.6.101-1.6s-.601 1.2-1 1.3c-.398.1-.5-.2-.5-.5s.102-.6.102-1c0-.5-.602-1-.802-.7-.198.3-.6.5-1 .7-.3.1-.898-.2-1.6-.1s-1.301.2-2-.1c-.7-.3-1.101-.9-1.2-1.6-.101-.7.399-1 .8-1s2.102-.1 2.5-.3c.4-.3.9-1.2 1-1.6 0 0 .602-.2 1.4.1.5 0 1.5.3 2.399.4.898.1 1.698.1 2.101 0 .399-.2.8-.8 1-1.2.199-.4.6.2.5.4-.101.2-.101.6.399.4.601-.2.5-.6.698-.7.2-.2.5.2.5.2s.302-.2.5-.4c.2-.3 4.5-.2 5.2-.2s1 .7 1.5 1.4c.5.6 1.3 1 2.102 1 .8 0 1.5-.1 2.3.1.801.2 1.301 1.8 1.2 2.7-.102.9-1.5 3.3-1.5 3.3l.601 1.3s.899-1.8 1.399-2.4c.5-.6 1.101.8.898 1.3s-1.601 3.3-1.601 3.3l.398 1.5s1.5-2.7 1.7-3c.3-.3 1 .4.8 1-.101.6-1.898 4.9-1.898 4.9l.398 1.6s1.602-3.2 1.802-3.9c.3-.7 1.198-.3 1 .4-.2.7-3.102 6.4-3.302 6.8-.198.3-.698 0-.8-.2-.101-.2-.3-2.3-.3-2.3l-2-.7-2.7 1.2-.101-2.4 1-.2-.102-1s-2.199 0-2.8-.1c-.601 0-2-.2-2-.2l-.101-.7s2.199-.2 2.898-.5c.7-.3 2.899-1.6 2.899-1.6l-.101-1.1s-2.199 1.5-3.199 1.8c-1 .3-3.7-.1-3.7-.1v-.9s2-.3 3.301-.5c1.3-.2 3.199-2 3.199-2l.899-2.7s-2.199 2.3-3.5 3.3-4 .6-4.199.6c-.102 0-.7-.7.101-.8.8-.1 3.601-.6 4.601-1.3 1-.6 2.101-2.9 2.101-2.9l-.899-.4s-.3.7-1.101 1.9c-.8 1.3-2.399 1.4-4.3 1.5-1.89.1-3.59-1.5-3.79-2zm-4.1 9.1v-2.2s2.2 3.1 2.3 3.3c.102.2 1.602-.3 1.802-.7.198-.4 1.8-1.9 1.8-1.9l1 .7s0 .9-.102 1.3c-.1.4-.2 1.6-.2 1.6l.601.4s1.399-.8 1.699-1c.301-.2 1.301-.9 1.301-.9l.899.2.5 3.8.898.2 3-1.8 1.199.9-.699 2.8.602.5 3-.8 1 .5-.9 2.7.8.7 3.2-.9 1.101.4c-.601.5-1.601 1.3-2.101 1.8-.5.6-.801 1-.801 1h-.399l-.601 1-1-.6 1-1.3-.601-.2-.801.8-.697-.2s.699-.9.801-1.2c.198-.3-.5 0-.7.1-.3.1-1 .7-1 .7l-.399-.3 1.3-1.1-.398-.5L349.1 45s-2.398-1.7-3.198-2.3c-.802-.6-2.899-1.6-3.602-1.9-.8-.3-.8-1.2-.898-1.7-.102-.5-1.302-.5-1.302-.5v1.3c0 .5-.698.9-1.198 1s-.102-.5-.102-.5 1.102-1.8-.7-2.1c-2.198-.4-2.101 1.9-2.101 1.9s-.899-.3-.699-1.2c.399-1.4 2.3-1.8 2.3-1.8l-.3-.8s-1.2.4-1.398.6c-.2.2-.102-.7-.102-.7l-.801.2s0 .5-.1.7c-.102.2-.5.5-.5.5l.198-1.1-.698-.4s-.2.5-.302.8c-.101.3-.198.8-.198.8l.1-1.9-.5-.7-.699 1.9v-3.2zm-.101 5.4c1.601-.6 2.2.5 2.398 1.1.102.1.102.2.102.2l-.3.2s-.602-.6-1.102-.5c-.5 0-.801.4-1.7 1-.8.6-.101 2-.101 2l-.5.2s-.601-1-.699-1.8c-.098-.8.103-1.7 1.902-2.4zm-3.199 0 1.199-.2-.699 1.5h-1.2l.7-1.3zm.6 3.3c.302.4 1 1.3 1 1.3l-.898.2s-.399-.5-.5-.7c0-.2-.3-.2-.699 0-.4.2-1.301.6-1.7.8-.398.2-.398.7-.398.7l.398.5-.603.6s-1.5-1.8-.5-2.7c1-.9 2-1.1 2.398-1.2.502-.1 1.202.1 1.502.5zm-3.901-3.7s1.101-.1 1.398 0c.302 0 .602.3.5.5-.101.2-.898 1.9-.898 1.9l-1.899.9.899-3.3zm-3.5 3.2c.101-.3.101-3.8.101-4.1 0 0 .899.1 1.399.2.398 0 1 .5 1 .7 0 .2-1.102 3.5-1.102 3.5l-1.5.1c.003 0 .003 0 .102-.4zm2 2.3c.601.8 1.101 2.1 1.101 2.1l-.5.1s-.398-1.5-1-1.4c-.601 0-2.7.6-3.2 1-.5.3-.198 1-.1 1.2 0 .1.199.7.3.8l-.5.2s-.898-1.8-.898-2.3c0-.6.601-1.4 1.3-1.8.698-.4 2.898-.7 3.497.1zm-3.699-7 .1 5.3-1 .2s-.3-5.4-.398-6.3l1.298.8zm-1.4 12c.302 0 .9-.1 1.9-.4s1.3-1.4 1.399-1.8c0 0 .3-.1.5 1.4.101 1.4-1.1 2.1-1.899 2.5-.8.4-1.801 1-2.101.4-.2-.3-.099-2 .201-2.1zm-127.7-3.2c-.699.1-1.1 0-1.1 0l.7-.7s-.8-.1-1.5-.1-.8-.2-.8-.2l.899-.7s-.399-.1-1-.2l-.6-.1.3-.5s-.8-.1-.8-.4c0-.3.2-.3.2-.3s-.9-.5-1.301-1.3c-.5-.8-.3-1.2-.3-1.2s1.101.8 1.601 1.4 1 1 1.399 1c.4 0 1.101 0 1.4.2.199.1.399.4.399.4s.9.4 1.5.7c.5.4 1.2 1.2 1.2 1.2s-1.497.7-2.197.8zm75.4-8.7c.4.1.6.3.6.3s.4.1.4.4c0 .3-.2.5-.2.5s-.1 1.1-.5 1.1c-.399 0-.5-.4-.5-.8 0-.3.2-1.5.2-1.5zm-.4 5.1c0-.4.601-1 .7-1 .3.1.2.2 0 1.3s-.3 1.4-.3 1.4-.6.1-.7-.2c-.1-.3.3-1.1.3-1.5zm-7.4-5.1c-.8-.8-1.9-2.6-2.2-3.1-.3-.5-1.7-1.6-1.9-2.2 0 0 2 .3 2.801.9.899.6 1.6 2.2 2.1 3.7s-.001 1.5-.801.7zm-10.2-2.9s1 .8 1.8 1.2c.9.4 1.4.7 1.4.7s0 .8.1 1.5c.101.7 1 2.5 1.101 2.9.1.4-.101 1.2-.101 1.5 0 .3-.2-.3-.7-1.1-.6-.8-1.3-1.6-2.199-2.5-.9-.9-1.4-2.4-1.5-2.8-.101-.5-.001-1 .099-1.4zm-2.4-5c-.6-.4-2.399-.9-2.399-.9v-1s1-.6 1.6-.7c.5-.1 1.101.2 2 .7.9.6 1.7 2.4 2 3.6.3 1.2 1 1.4 1.5 1.9.5.4 1.3 1.7.9 1.7s-1.3-.3-2.101-.7c-.8-.4-.899-.8-1.1-1.6-.3-.8-1.9-2.6-2.4-3zm6.8 4.9c-.101-.8-.601-.9-1.101-1.8-.6-.8-1.5-2.2-1.5-2.2.2-.1 2.601 1.3 3.3 2 .7.7.4.9.601 1.3.2.4 1.2.6 1.399 1.2.2.6-.1 3.7-.1 3.7s-.7-.7-1.2-1.3c-.499-.7-1.299-2.1-1.399-2.9zm6.3-3.4c.2.6.2 2.3-.101 1.7-.3-.6-1-1.4-1.6-1.8-.6-.4-2.1-.9-2.8-1.4s-.9-2.8-.601-3c.4-.3 1.7 1.1 2.5 1.4.7.3.9.4 1.101.7.201.3 1.301 1.8 1.501 2.4zm.4-6.1c.9.1 0 .8-.899.9-1.2.2-2.8-.2-3.8-.7s-2.7-1.8-3.4-2.8c-.7-.9-1.7-1.6-1.6-1.8.199-.5 4 1.1 5.3 1.4 1.399.4 1.399 1.1 2.2 1.9.799.9 1.299 1 2.199 1.1zm-10.8-9c.101-.4 0-1.1.101-1.5.199-.5 2.3-.4 3.199-.3 1 0 1.2.6 1.9.9.7.4.6.8-.1 1-.801.2-1.5.2-2.4.3-.9.1-2.1.8-2.8.7s0-.8.1-1.1zm-.1 2c.5-.4 2.8-.6 4-.9 1.2-.3 2.399.4 3.3.8.901.4 2.6.6 2.8.6.3.1 0 .3-1 .9-1 .5-1.899.5-2.899.5-.9 0-2.2-.5-3.601-.9-1.399-.5-3.1-.1-3.2-.5-.1-.3.2-.2.6-.5zm-2.7-6c0 .3-.9.9-1.4.8-.5-.1 0-1-.1-1.4-.1-.4-.9-.2-1.1.4-.2.6-1 1.4-1.4 1.5-.4.1-1.1.5-1.1.4.1-.1-.101-1.2-.101-1.2s0-.8.101-.8c.199-.1 1.1-.5 1.5-.9.399-.5.699-1 1.399-1 .7 0 2.201 1.8 2.201 2.2zm-5.3-1.7c-.3.5-.9.9-.9.9s-.2-.8-.6-.8-.9.8-.9.8-.399-.2.3-1.4c.7-1.2 1.601-2.1 2.101-2 .699.3.299 2.1-.001 2.5zm-4-2.6c.3-.5.8-.1.7-.1l.8-.9s-.7-1.2-.2-1.4c.5-.2.9.7.9.7l1.5-.4s-.101-1.2.699-1.2c.801.1.101 1.2.101 1.2l1 .3s.5-.7 1-.1-.5 1-.5 1 .2.5.3.7c.1.3.1.5.1.6.1.1 1.3-.1 1.3.5s-1.2.1-1.4.2c-.3.1-1.3.7-1.3.7s.3-.4.399-.9c.101-.5-.1-1.7-.899-1.9-.8-.2-1.4.4-2.3 1.1-.9.7-1.9 2.8-1.9 2.8s-.4-.2-.4-.9.5-1.1.5-1.1-.6-.6-.4-.9zm-4.6.9c.6-.4 1.6.3 1.8.8.3.5.6 1.4-.301 1.9-.8.5-1.6.4-2.1-.4-.499-.8-.099-1.9.601-2.3zm-6.7 5.3c1.199-2.2 2-2.1 3.1-2.1 1.1-.1 2.1.4 2.6.6v.9s-2.5-.6-3.5-.2-1.3 1.9-.9 2.4c.399.5 2.399 1.7 2.399 1.7s-4.899-1-3.699-3.3zm4.5.9c.3.5-.2 1.1-.9 1.3-.7.2-1.9-.6-1.6-2 .3-1.4 2.699-.2 3.1 0 0 0-.9.2-.6.7zm1.2 17.4c-.3.5-1.1.5-2.5-.5-1.399-.9-.8-2-.6-2.2.2-.3 1.1.1 1.4.2.399.1.8.2 1.399.6.501.4.601 1.4.301 1.9zm3.8 2.1c-.801-.3-.5-1.7 0-1.6.5.1.8-.2 2.8-1.3 2.1-1.1 2.6-2.7 2.7-3.5.1-.8-1.2-3.1-1.4-3.4-.2-.3-1.6-.2-1.2.6.3.8.2 1.6 0 2.3-.2.6-2.5 2.5-3.399 3.1-1 .7-2.301 0-2.601-.7-.3-.7.4-2.1.7-2.5.3-.4.8-.7 1.5-.8.7-.1.9-1.2.9-1.5s-1.7-.7-2.301-.7c-.6 0-1.6.2-1.6.2v.5h1.7c.3 0 1.3.5 1 .5s-2.7.4-3.601.7c-.899.2-2 1.6-2 1.6s.301-1.8.4-2.1c.1-.3.4-1.2.7-1.5.3-.4.399-1-.101-.7s-2.5 1-2.5 1 1.4-2.9 1.9-3.6c.399-.7 1.5-1.5 1.5-1.5s0-.2-.101-.4c0-.2.9-1 1.101-1.7.2-.8-.5-2.3-.601-2.5 0 0 1.2.1 1.601 1.1.5.7.399 1.2.399 1.2l.5-.1s0-.4.101-.7c.1-.3.1-1.4 0-1.8-.101-.5-1-1.6-1-1.9 0-.4.899-.2 1.6.2.7.4 1 1.1 1.101 1.7.1.6-.3 1.9-.3 1.9l.8-.1s.1-1 .2-1.4c.1-.3.199-.7.399-1.6.2-.9-.6-1.8-.6-2.1 0-.3.8.1 1.5.6.6.5.3 2.5.3 3.1-.101.6-.8 1.6-.8 1.6l.399.1s1.5-2.1 1.8-2.6c.301-.5-.1-1.9 0-2.2.101-.3.4-.8.801-.3.399.5.399 2.8.3 3.3 0 .5-1.5 2.2-1.5 2.2h.7s.199-.5.5-.9c.3-.5.8-.9 1.5-1.3.8-.4 2.1-.5 2.5-.7.399-.3.399-.9.8-.9.399-.1.3.6 0 1.6-.2 1-.9.9-1.601 1.4-.699.5-2.399 1.6-2.399 1.6l.8.7s1.601-1.4 2.4-1.9c.799-.5 1.8-.7 2.399-.9.601-.3 1-1.6 1.2-2 .2-.4.8.3.9.7s.1.8 0 1.6c-.101.8-1.601 2-2.2 2.4-.601.4-3.101 1.7-3.101 1.7l.4.9s1.1-1 3.1-1.5 3.4 1.8 4.2 3.3c.8 1.6 2.601 2.9 2.8 2.9.2 0 .601.5.101.6-.4.2-.9.1-1.7-.4-.9-.6-3.6-2.7-4.2-2.8-.7-.1-2.899-.1-2.899-.1l.399.9s.601-.2 1.601-.1c1 .2 2 1.3 2.699 2.3.7 1 2.2 2.5 2.4 2.6.3.2.8.4.8.6 0 .2-.899.2-1.6-.1-.7-.3-2.4-2-3.601-2.7-1.199-.8-2.399-.1-2.699 0l-.601.2s-.1-.3-.3-1.1c-.2-.8-2.2-3.3-2.8-3.7-.7-.4-1.7-.3-1.101.1.601.5 3 4 3 5.5s-2.3 4.7-3.399 5.7-3.295 1.4-4.095 1.1zm1.6-4.7 1-.8v2.3l-1-1.5zm4.8 9.9c.101.9.5 1.2.101 1.9-.4.7-1.801 1.4-1.801 1.4s.301-.7.101-2.1c-.3-1.4-1.3-3.4.1-4.9s3.101-2.1 3.101-2c-.2.3-.9 2.3-1.2 3.1-.302.8-.502 1.7-.402 2.6zm-5.9 10.1c-.9.4-1.9.6-2.301.6-.399 0 .801-1.4 1.2-1.9.4-.5 1.101-1.2 1.601-1.6.5-.4 1.199-1.4 1.6-1.8.401-.4.6-.7 1-.9.4-.2.7 0 .8-.1 0 .5-.6 2-1.2 2.8-.7.9-1.8 2.5-2.7 2.9zm.3 3.9s.399-2.6.899-2.4c.501.2-.899 2.4-.899 2.4zm-5.6-.9c.101-.3 1-1.7 1.2-2.1.2-.4.7-.6.7-.6.3.2.2.5.1.7-.199.2-1 2-1.399 2.4-.401.4-.701-.1-.601-.4zm-.4-1.8c-.4.2-.9-.3-.5-.9.5-.6.8-1.1 1.3-1.4s1.6-.1 1.5-.2c.1.4-.4.6-.7.9-.3.3-1.3 1.5-1.6 1.6zm2.5 1.4c.1-.3.7-.4 1-.4.399 0 .399.7-.2.9-.6.3-.4.8-.7 1.1-.3.3-.7.1-.7-.3s.5-1 .6-1.3zm2.1.7c.3-.4.5-.9.9-.8.3.2.3.7 0 1-.3.3-1.101 1.2-1.101 1.6-.1.4-.899.8-.8.1.101-.6.801-1.5 1.001-1.9zm.1-14.6c.199-.1 1.6-.7 2-.9.399-.3.199-.9.5-1.2l1.8.3-.2 1c-.1 1.1-2.1 1.6-3 1.4-.9-.2-1.3-.5-1.1-.6zm-4.4 4.4s0-.1.1-.1c.301-.1 1.101-.5 1.801-.5.899 0 1.5-.9 2.3-1.2.8-.3 1.3-.8 2-.7.7.2.899.3.899.3s-1.4 2.1-2.4 2.4c-1 .3-1.5.4-2.7.4-1.2 0-2-.6-2-.6zm-.4 3.5c.601-.1 1.101-.5 1.601-.8.5-.3 2.6-.8 3.6-1.1 1-.3 2.7-1.5 2.7-1.5s.1.3 0 1c-.2.6-1.8 2.8-3.6 3.4-1.5.5-4.7-.1-5.4-.5-.901-.5.499-.4 1.099-.5zm-1 1.6c.4.2-.5 1.3-.699 1.2-.201-.1.399-1.3.699-1.2zm-24.4-17.6c.6 0 3 .8 3.5 2.8s.899 3.3.899 3.3l.801-.2s-.2-.6-.4-1.4c-.1-.8-.4-1.5-.4-2-.1-.5-.8-1.5-.8-1.5s1.3.3 1.7 1.5c.3.8.6 2.7.6 2.9 0 .2.5.2 1.2-.4.7-.6 2.2-.8 5-1.1 2.8-.3 4.9.1 6.601 1.1 1.899 1.1 2.6 5.5 2.5 6.3-.101.8-1.601 2.2-1.2 1.1.399-1.1-.101-3.1-.5-4.3-.4-1.2-1.8-2.6-3.9-2.8-2.1-.3-7 .5-7.8.8-.8.3-2.2 2.1-4.2 2.7s-3.3-2-3-3.6c.3-1.6.101-2.7-.5-3.6-.6-.9-3.3-.8-3.899-.8-.002 0 2.598-1 3.798-.8zm13.6 15.2c-.7-.3-3.8-1.2-4.899-.7-1.801.8-2.9 2.8-2.9 2.8l-.1-2.2s1.3-1.4 2.399-1.6c1.101-.2 2.3-.6 3.8 0 .801.3 2 1.4 2 1.4l-.3.3zm.3 1.2s-3.8 3-4.699 3.8c-.9.8-3.2-.5-2.2-2.2.899-1.7 1.8-3.1 3.7-2.5 1.899.6 3.199.9 3.199.9zm-3.1-4c-.9-.1-3.3.4-3.7.7-.399.3-1.2.7-1.2.7l-1.1-.5s.5-.3.3-.7c-.2-.4-.899-1.4-.899-1.4s1.399.3 2.199-.5c.801-.9 1.4-2.7 1.7-2.8.3-.1 5.5-1.8 7.5-1.3 2.601.6 3.5 2.9 3.5 4.4 0 1.6-.899 3-2.5 2.8-1.6-.2-4.9-1.3-5.8-1.4zM203 37.2c-.101-.4.2-2.3.399-3.1.301-.8-.399-1.6-1.3-1.6-.899 0-2 .1-3.5-.4-1.299-.433-1.248-.716-1.275-1.044-.079-.034-.124-.056-.124-.056l.1-.1c.013.053.02.105.024.156a7.47 7.47 0 0 0 1.476.444c1.1.3 2.1.4 3.1.3 1-.2 1.101.1 1.601.5s.5 2.3.2 3.4c-.301 1 .8 2.9.8 2.9l-.601.3s-.7-1.3-.9-1.7zm.8 3.3c1.2-.3 2.3 0 2.8.3.601.3 1.601 1.1 1.9 1.5.3.5.6.9-.4 1.5s-2.3 1.7-2.6 1.8c-.3.2-.4-.1-.4-.1s1-1.1 1.2-1.5l.3-.6-.8-.4s-.8 1.7-1 2c-.2.3-.5.3-.4-.1.101-.4.9-2.3.9-2.3l-1 .1s-.1 1-.2 1.2c-.1.1-.2.9-.2.9h-.4l.1-1.9-.6.5-.1 1.6s-.3.3-.5.2c-.199-.1-.199-1.9-.199-2.4-.001-.6.299-1.9 1.599-2.3zm.1 6.7c.7.2.301 1.6-.5 1.3-.8-.3.1-1.4.5-1.3zm-.8-1.7c.5-.6 1.601.3.9.9-.6.6-1.3-.5-.9-.9zm0 1.5c0 .9-1.2.6-1.1-.2 0-.3 1-.9 1.1.2zm-1 1.4c.601-.4 1.101.9.5 1.1-.5.2-1-.8-.5-1.1zm-3.6 2.6c.6-.1 1.1 1.5-.101 1.4-1.099 0-.499-1.2.101-1.4zm-.7-2c-.5 0-.7-1.1 0-1.2.6 0 .5 1.2 0 1.2zm1.7-.4c-.4.6-1.101.1-.8-.5.2-.4 1.3-.1.8.5zm.1-1.7c.2-.4 1.4.1.7.6-.6.5-.9-.1-.7-.6zm-.8.5c-.5.3-.8-.4-.2-.8.3-.2.7.4.2.8zm-.2 2.1c.4-.4 1.4 0 .8.7-.6.7-1.2-.3-.8-.7zm1.5 1c.5-.1.5 1.1-.2 1-.7-.1-.6-.9.2-1zm.3-1.2c-.6-.1-.699-.9 0-1 .8 0 .6 1.1 0 1zm1.5 1c.101.5-1.3 1.1-1.3 0s1.2-.7 1.3 0zm-.2-2.5c-.301.6-1.101 0-.9-.4.201-.4 1.2-.1.9.4zm-1-1.1c-.7-.3.3-1.2.8-1 .6.2-.1 1.3-.8 1zm-2-3.9c.199-.3.699-1.5 1.5-1.2.699.3 1.399.6 1.199 1.7-.199 1-.3 1.9-.699 1.6-.4-.2-1.2-.6-1.101-.8-.2.1-.2.5-.2.5s.7.5.9.7c.1.2-.3.8-.7.7-.399-.1-.8-.7-1.2-.9-.399-.1-.899.3-.899.3s.5.2.6.4c.101.2-1 1-1.6.6-.601-.4-.7-1.8.1-2.4.8-.5 2-.9 2.1-1.2zm-3.6-2.7c.101-1.3 1-3.4.9-3.4 0 .6.8 3.3 1 4.3s0 1.8-.5 1.8-1.5-1.4-1.4-2.7zm-3.2 11.8c-.199 0 0-.9 0-.9s-.699.2-1.1 0c-.4-.1.2-.4.2-.4s-2.1-.3-2.1-.6.301-.3.301-.3l-.7-.6c.2 0 4 .3 4.399.3.5 0 1.2.4.9.8-.3.4-1.7 1.7-1.9 1.7zm4.4.7c-.4.2-2 .7-2.6.6-.7-.1-.4-.7-.301-1.1.101-.5 1.301-1.8 1.601-2 .3-.2.1-1 0-1.4-.2-.4.1-.8.399-1h1.801s-.101.6-.101 1.1.8.9.8.9-.199.2-.199.5.3.6.3.6-.2.4-.4.6c-.2.2-.1.6-.1.6l-1.2.6zm2.9 2.5c-1 0-1.601.4-2.4.4-.799 0-1.1-.2-1-.5.1-.3 1.7-2 1.7-2h1.1l-.7 1.3 1.2-.4s.2-.8.2-1c.1-.1.8-.3.8 0v.9h.9s-.2-1.4-.2-1.7c0-.3.8-.7.8-.4 0 .3.2 1.4.2 1.4l.9-.5-.6-1.6.5-.7s.601 0 .601-.1c.1.1.5.2.899.6.4.4.101.5.4.8.3.3.399.8.399.8s.4.4.301.8c-.2.4-1.601.9-2.301 1.2-.6.3-.699.4-1.199.5-.5.2-1.5.2-2.5.2zm6.5.5c0 .3-.101 1.3-.301 1.5-.199.2-.5.2-.5.2s.101-1.2.101-1.6c0-.4-.601-.2-.601.1 0 .3-.6.5-.8.1-.1-.4 0-1.7 1.601-1.6 1.5.1 2.399 1.7 2.5 2.2.199.5.199 1.2 0 1.3-.2.1-1.4.1-1.4.1V56c0-.2-.6-.7-.6-.4zm-4.3 2.8c.301-.7 2-1.7 2-1.5.101.2.7 1 1.601 1.4.8.3 2.3.6 2.3.6s-2.6 1.4-3.5 1.8c-.801.3-2.701-1.6-2.401-2.3zm5.4 4c-.7.6-1.5 1.3-2.1 1.5-.601.2-1.601-.6-1.101-1.6.601-1 1.601-1.5 2.7-1.7 1.1-.2 1.2-.4 1.2-.4l.399-.3c-.098.4-.398 1.9-1.098 2.5zm.3-10.7c-1 0-.8-.3-1.2-.4-.4-.1-2.2-1.3-2.2-1.3l.6-1h2.5c.1 0 .6-.8.3-.8s-2.2-.1-2.2-.1l.1-.7s2.2-.4 2.399-.4c.2.1.601-1 .2-.9-.399 0-1.8.3-1.899.4-.074.074-.471.201-.637.303L205 46.9c-.026-.026.005-.06.063-.097l.337-.503s1.5-.4 1.9-.7c.4-.4 1.6-1.6 2-1.2.4.4.9 1.6.4 2.8-.6 1.2-1.7 4.5-2.6 4.5zm2.1 6.2-.3.1c-.199-.4-1.5-4.5.601-4.5 2.1 0 3.2 1.5 3 2-.2.6-.7 1-1.101 1.4-.399.3-.5-.2-.5-.5v-.8c0-.2-.8-.2-.8.2v2h-.2s-.199-.2-.3-.6c-.1-.4-.399-.1-.399.1l-.001.6zm3 3.9c-1.5-.3-2-1.6-2-1.9 0-.4.399-.2.8.1.3.3 1.899 1 2.399 1.2.501.2.301.8-1.199.6zm1-2.7c-1.301.5-1.9.2-2.7 0-.8-.2-1.2-.1-1.2-.1s2.9-1.9 3.2-2.7c.3-.8 1.6-.3 1.899.3.301.5.101 2-1.199 2.5zm17 1.3c-.9.3-4 .7-4 .7l2.199-2-.199-.6s-3.601 1.9-4.9 2.3c-1.3.4-1.4-.1-1-.5.4-.4 4.5-3.4 4.5-3.4l-.2-.6s-3.7 1.1-4.7 1.8-3.699 2.1-4.1 2.5c-.4.3 1.2-2.1 2.5-3.2s5.2-3.2 5.2-3.2l-.4-.7s-3.1 1.1-4.7 2.2-4.399 2.8-5 3.6c-.6.8 1.301-3 2.7-4.1 1.5-1 5.9-3.6 5.9-3.6l-.6-.6s-4.8 2.2-5.699 2.8c-.9.7-3.101 1.9-2.9 1.5.1-.4 2.4-2.8 3.3-3.3s3.601-2.3 3.601-2.3l-.2-.6s-3.101 1.2-4.9 2.4-4.5 2.6-6.5.8 0-4.1 0-4.1-.5 3.8 1.601 4c2.1.2 4.399-2.1 4.699-2.4.298-.3 4.098-3.8 4.598-4.2s3.5-1.6 4.5 1.6 3.899 8.2 5.899 9.1c2.101 1 4.601 2.4 4.601 2.4s-4.9 1.4-5.8 1.7zm7-5.7c-.101.3-.5 1.2-.601 1.5-.2.3-.3.5-.6.4-.3-.2-.101-.6 0-.8.1-.2.5-1.2.6-1.5.101-.3.3-.7.7-.6.301.2.001.7-.099 1zm1.6 1.2c0 .3-.1.8-.5.7-.4-.1-.2-.4-.2-.7 0-.3.4-.4.4-.4.4-.1.3.1.3.4zm5.4-14.4c-.2.7-.301 1.8-.2 2.6.2.7.1 2.6-1.2 3.5-1.3.9-2.7 1.8-2.9 2.1-.3.4-1.1 1.8-1.3 2-.3.2-.7-.2-.7-.6 0-.5-.1-1.5.101-1.9.2-.4 2.5-4.6 2.6-5 .101-.4 1.101-1.7 1.5-2 .4-.3.7-.9.8-1.3.101-.4.801-1 1-1.1.599.1.499 1 .299 1.7zm3.5 3.8c-.101.6-2.101 4.8-2.301 4.9-.199.1 0-2.8-.199-3.3-.2-.5-1.101-2.3-.5-3.5.6-1.1.899-1.5 1-2.1.1-.6.199-1 .199-1l.2-.2h.601s.3 1.8.5 2.4c.2.6.6 2.2.5 2.8zm-.8-5.9c-1.5-.2-2.399-.5-3.199-1.7-.801-1.1.6-3.4 1-4 .399-.7-1-2.2-1-2.2l.5-1.3s2-.1 2.899 2.2c.4.9.101 1.9-.1 2.8-.2.9.7 2.1 1.1 2.8.5.8 1.601 1.2 1.4 1.3-.2.1-1.1.3-2.6.1zm6.3 7.2c-.301.2-.801-.2-1.301-1-.5-.8-1.699-2.5-2-3.1-.3-.6-1-2-1-2.2 0 0 .5.2 2 1.1s1.9 1.9 2.2 2.4c.201.5.401 2.7.101 2.8zm2.7-1c-.1.4-.699.2-.8 0-.1-.2 0-1.8-.3-3s-.6-2.3-.8-2.6c-.3-.4-.4-1.1-.4-1.1s1.601 1.4 2.3 1.5c.7.2 1.301.8 1.301.9-.001.1-1.201 3.9-1.301 4.3zm4-.1c-.1.2-.6 0-.6 0v-.4c0-.2-.8-3.1-1-4.1-.2-1-.3-1.4-.3-1.6 0 0 .399-.1.899.2.4.2 1.5 1 1.801 1.1.4.2-.8 4.6-.8 4.8zm1.7 2.4-.8-.3.1-1.7 1.2.8-.5 1.2zm.9-2.2c-.3-.1-.7-1.2-.9-2.1-.2-.9.101-1.5.3-1.9 0 0 .601 1 .7 1.4.101.3.2 1.3.3 1.8.2.5-.1.9-.4.8zm-1.1-8.2c-.3-1.1-.6-3-.199-3 1.199 0 1.5 1.1 1.899 1.9.5.7 1.5 2.6 2 3.1s.9 1.2.8 1.3c-.1.1-.7 0-1.399-.1-.7-.1-1.101-.5-1.5-.9-.401-.5-1.201-1.3-1.601-2.3zm3.8 5.6c-.2.4-.301 1.1-.601 1.6s-.7 0-.6-.4c.1-.4.5-1.6.6-1.9.101-.3.601-.3.601-.2.3.1.2.4 0 .9zm2.3 9.1c-.3-.3-.601-1-.8-1.5-.301-.5-2.801-2-2.801-2.4 0-.5-.199-2.5.4-2.7.2 0 .4.4.7 1s.7 0 1-.5c.3-.6.3-.9.6-.9s.3.1.601.3c.399.3.699.7.699.7s.5 2.3.5 2.5c0 .2-.199 1.1-.199 1.6s.199 1.8.3 2c.1.2-.7.2-1-.1zm50.1-23.5-1.8.1-.398-.7h3l-.802.6zm-2.1-4.9 4.3-2.5-.7 1.4-3.601 1.6.001-.5zm0 1.1 2.899-1.1-.899 1.2-2.2.5.2-.6zm4.199 1.9-.8.8-4.2-.5-.5-.6 5.5.3zm-6-9.9.5 7.6-.699 1-.5-7.6.699-1zm-1.299 2.3-.102 3.5-.601-.6-.102-2.2.805-.7zm-.4-9.1c0 .8-1.301.9-1.301 0 0-.5 1.301-.8 1.301 0zm-2.4-2.9c.4-.3 1.4.4.9.9-.6.6-1.4-.5-.9-.9zm-2.2-1.5c.398-.3 1.398.1.698.8-.598.6-1.198-.3-.698-.8zm-1.5.2c0 .7-1.101.9-1.199 0-.001-.6 1.099-.7 1.199 0zm-2.6.5c.101.6-.899 1-1.1.2-.1-.7 1.1-.8 1.1-.2zm5.3 1.6c2.4 2.2.9 5 .302 5.8-.602.8-3.5 2.7-3.5 2.7l-.601-.4s2.602-2 3.2-3.5c.6-1.6-1-3.7-3.3-3.4-2.301.3-4.801 1.5-4.801 1.5l-.199-.3s.898-1.1 1.5-1.7c.899-1 5.099-2.8 7.399-.7zm-15.4 6.7c4.6.1 9.3 1 12.398 3 1.101.7 0 1.8-.5 1.5 0 0-4-3.2-12-3.1-6.1.1-9.399 2.2-11.3 3.2-1.901 1-2.3-.8-1.7-1.1.302-.1 5.502-3.6 13.102-3.5zm-12.2-.8c-.4-.8-.2-2.7 2.3-3.2 2.6-.5 4.4 3.6 4.4 3.6s-1.5.7-3.2 1.2-3.2-.7-3.5-1.6zm12.1-7.6c1 0 2.3.3 2.3 1.9h-4.5s.3-2 2.2-1.9zm-.1-2.1c1.3-.1 1.7 1.6.2 1.6s-1.4-1.6-.2-1.6zM291.5 9s2-.1 2.899-.1c.9 0 .9.5.7 1.1-.1.6-.399.9-.399.9l-.9-.1v-.6c0-.4-.9-.7-.9 0 0 .8-.1.6-.1.6l-1 .1s-.2-.4-.3-.9c-.2-.5-.5-1 0-1zm3.6 4.8c-1.2.1-3.5 0-3.5 0s-.8-2.2 1.5-2.2 2.3 1.3 2 2.2zm4 .3s1.7-2.4 2.301-3.1 3.699-.6 3.801 1.6c.1 2.2-1.2 3.2-3 2.6-1.702-.6-3.102-1.1-3.102-1.1zm1.9-8.8.5 2.1s-.101.3-.3.1c-.2-.2-.4-.5-.4-.5s-2 1.4-2.7 2.9c-.398.7-1.7 3.9-1.7 3.9h-.5s.101-2.8 1.5-5c1.5-2.2 3.5-3.6 3.6-3.5zM297 3l-.1 3-2.2-.9.1-.4L297 3zm-1.2-1.5L294 3.6s-.5-.4-.9-.4c-.399 0-1.1.3-1.1.3l-1.6-2.3 5.4.3zm-6.3 1.2 2.1 1.7v.5l-2.3.8.2-3zm-4.3 4.2c.1-.4.8-1.7.8-1.7s2 1.2 3.3 3.1c1.3 2 1.7 5.6 1.7 5.6h-.6s-1.8-4.2-2.3-5C287 7 286 7.1 286 7.1s-.3.1-.5.3c-.1.2-.4-.1-.3-.5zm-2.8-1.3c.2-.4 1.4-.3 1 .5-.4.8-1.3.4-1-.5zm-1.8.2c.3.9-1.1 1.2-1.2.1 0-.6 1-1 1.2-.1zm-2.1.9c.2.6-.7 1.5-1.3.4-.5-.9 1-1 1.3-.4zm-3.7 4.4c-.8-.1-.4-1.1.1-1 .8.2.7 1.1-.1 1zm.4-2.5c-.6-.6.8-1.5 1.3-.6.5.8-.5 1.5-1.3.6zm1.1 3.7c-.3-2.5 2.5-5.1 4.9-5.1 2.399-.1 3 .1 4.6 1.2l1.9 2.2-.2.3s-4.101-2.5-6.8-1.4c-2.7 1.1-2.7 2.6-2.2 4s3 3.2 3 3.2l-.6.3s-4.3-2.1-4.6-4.7zm-1.1 7.8.6.9-.3 2-.7.7.4-3.6zm-1.9-2.3 1.2 1.7-.601 5.1-.899-.3.3-6.5zm-5.8 6 6 1.9-.4.6-5-1.7-.6-.8zm1.7 2.6-.601-.7 3.8 1.1-.399.6-2.8-1zm.2 3-.699-.7 3.1-.7-.3.8-2.101.6zm-.3 21.7s-.2-.2-.3-.7c-.1-.5.2-1.7.3-2 .101-.2 1.9-1.1 2.3-1.2.4-.1.801-.2 1 .1.2.3.4.7.5 1.2s-1.4 1.1-2.2 1.4c-.8.4-1.6 1.2-1.6 1.2zm2 6.2c-.7-.9-1.399-3.1-.7-4.9.101-.3.5.9.601 1.3.1.5.2.7.2.7l6.899-2.5s0-2.5.2-3c.1-.5.4-.5.4-.3s.199 2.8.399 3.6c.2.8 1.5 2.4 1.7 2.9.2.4.5.9.3.9s-1.6-.4-1.6-.4l-5.601 2.3s.5.8.301.9c-.199.1-2.399-.7-3.099-1.5zm2.5-6.8c.101 0 0 1.4 1.4.8 1.399-.6 1.3-1.5 1.5-1.6.3 0 .7 1.9-1 2.4s-2.3-.2-2.3-.7c-.1-.4.3-.9.4-.9zm0-4.1c.2-.1.601.7.8 1.2.4.6 1.101 2 1.2 2.4.2.4-1.1 1.1-1.3.6-.3-.5-.4-1-.6-1.8-.1-.8-.4-2.2-.1-2.4zm1.9 15.1c-1.9.5-2.4-.5-2.7-1-.3-.5.3-.9 1-1.3s6-2.4 6.4-2.5c.399-.1 1.699-.3 2-.5.3-.2-.2-1.5-.4-2-.2-.4-1-1.6-1-1.6s-.7.2-1-.3c-.3-.5.4-.7.4-.7s-.2-.6-.2-1v-2.1c0-.7-.4-1-.7-1-.3 0-2.5.5-2.9.6-.399 0-.8.1-.899-.2-.101-.3-.4-.6-.4-.9 0-.2 0-.6.101-.7.3-.2 1.5-.5 2.3-1 .899-.2 1.7-.4 3.1.7s.8 5.5.8 5.7c0 .3 1.101.9 1.601 1.5s.899 2.3.8 3.9c-.099 1.6-6.403 3.9-8.303 4.4zm30.6-23.9c-1.199 0-1 1-1 1h-.4s-.801-3 1.8-2.7c2.6.5.199 3.4.199 3.4s.601-1.7-.599-1.7zm-4.7 15.9c-.101 0-.101.1-.199.3-.101.2-.201.2-.301.5-.101.3-.801 0-1.199 0-.301 0-.5.1-.5.1s0-.1.1-.3c.101-.2.9-.2 1.2-.2s.1-.3-.2-.4h-.899c-.301.1-.399.4-.801.5-.398.1-1 0-1.2.1-.199.1-.6.5-.6.6 0 .1-.1.4-.4.4-.3 0-.3-.2-.199-.5.1-.3.5-.8.5-1 0-.2-.4-.2-.7-.2-.301 0-.601.1-.7.2-.2.1-.4.1-.5-.1-.101-.2.2-.3.5-.5.399-.2 1.8 0 2.1-.1.3 0 .3-.2.3-.2s-.399-.2-.5-.5c-.1-.3 0-.5.301-.6 0 0 .199.1.5.2.1.2.399.1.399-.1.101-.2.101-.2.399 0 .399.3.101 1 .399 1.1.301.2 1.5.1 1.7 0 .199-.2.5-.4.3-.5-.199-.1-1.101-.2-1.399-.2-.3-.1-.5-.4 0-.4s2 0 2.101.5-.2.6-.5.6c-.301.1-.2.4 0 .4.199 0 .5-.2.699-.2.101-.1.301-.1.301.1-.101.2-.101.6-.101.9s-.7.3-.7 0c0-.4.301-.5.301-.5h-.502zm-.9-12.7c-.4-.3-1 0-1.2 0s-.3-.1-.3-.1c0-.2.2-1.1.8-1.3.601-.2 2-.3 2.3.7.4 1 0 1.9-.199 2.1-.2.2-.899.4-1.2.4-.301 0 .299-1.5-.201-1.8zm-.1 9.2c-.101.2-.899 1.1-1.199 1-.301-.1-.602-.2-.801-.4-.2-.2-.4-.5-.4-.7v-1.3s.1-.3.399-.4h1.5c.301 0 .5 0 .5.2v1c.001.3.101.5.001.6zm-2.2-7.6v.5h-.6v-.5h-.5v.5h-.4v-.8h2.5v.7h-.4v-.4h-.6zm0-6.9v.7h-.6v-.6h-.5v.6h-.5v-1h2.601v1h-.5v-.7h-.501zm-.4 1.1c.3.1 1 1.1 1 2.2.101 1.1-.5 1.9-1 1.9s-.9-1.1-1-2c0-.8.7-2.1 1-2.1zm1.1 4.7c.5 0 .399.3 0 .3h-2c-.3 0-.3-.1-.3-.3 0-.1.2-.2.3 0 .1.1 1.5 0 2 0zm.3-6.6h-2.601c-.3 0-.2-.3.101-.3h2.5c.3 0 .2.3 0 .3zm-2.4 6c-.2.2-.9-.6-1.4-.4-.5.3-.699.9-.699 1.3s-.101.8.199.9c.301.1-.1.2-.3.1-.2-.1-1.1-1.1-1-3.1.101-1.2.5-1.2.8-1.2.601-.2 1.2-.2 1.7.5s.9 1.7.7 1.9zm-3 2.7h4.9c.1 0 .199.3.1.4v3.8h-1.3c-.3 0-.3 0-.3.3s-.101 2.5-.101 2.7c0 .1-.1.1-.3.3-.2.2-3 2.2-3.2 2.4-.2.1-.3-.4-.3-.6v-8.9c.001-.2.101-.4.501-.4zm7.5 7.7v-3c0-.3-.1-.5-.399-.5-.301 0-1.399-.1-1.399-.1s.2-3.6.2-3.8c0-.2-.102-.2-.102-.2h6.102c.5 0 .999 0 .999.4 0 .3-.601 4.2-.999 5.2-.4 1-1.801 3.9-2.2 3.9-.402.1-2.202-1.7-2.202-1.9zm3.4-10.3v.7h-.8v-.7h-.5v.7h-.5v-1l2.699-.1v1.1h-.5v-.7h-.399zm.7-1h-2.301c-.3 0-.3-.6 0-.6 0 0 1.801 0 2.301-.1.5 0 .4.7 0 .7zm-.5-4c-.301.5-.699 1.3-.699 1.7s-.102 1.2-.102 1.2h-.399s-.5-2.1-.801-2.7-.699-1.2-.399-2.1 1.1-2.2 1.1-2.2 1.7 1.2 1.801 1.9c.099.7-.201 1.7-.501 2.2zm-1.8 2.8-.699.1s.101-1.2-.801-1.2c-.898.1-.3 1.2-.699 1.2s-1-.5-1.199-1.2c-.2-.7.398-1.8 1.699-1.9 1.299-.1 1.699 3 1.699 3zm-1-5.4c0 .1-.8 1.8-1 1.9-.199.1 0-1.2-.6-1.4-.6-.2-1.1.3-1.1.3h-.9c.1-.4.7-3.3 2.5-3.5 1.8-.1 1.1 2.6 1.1 2.7zm-3.8-.2c0 .3-.1 1-.1 1h-.8s0-.8-.199-1.3c-.2-.5-1.101-2.6-.9-3.5.2-1 1.5-2.3 1.7-2.2.3 0 1.399 1.3 1.3 2.5-.001 1.1-1.001 3.2-1.001 3.5zm-1.5 1h-.8s-.101-.3-.3-.5c-.301-.2-.801 0-1.101.3-.3.2.101 2-.5 1.7-.6-.3-.7-1.5-.899-2.4-.101-.9.5-2.2 1.1-2.4 2.4-.9 2.6 3.3 2.5 3.3zm.9 22s1-1 1.8-1.2c.8-.2 1.6.8 1 1.4-.7.6-7.601 7.3-7.601 7.3s0-.5 1.801-2.9l-5.2-.3.6-.8h5.2l.3-.5-4.899-.2.6-.8h4.9l.3-.5-4.7-.1.8-1.2 5.099-.2zm1.1 6c-.2-.2.8-1.2.8-1.2s3.5 4.8 3.602 5c.1.2-.602.5-.9.4-.302-.1-3.302-4-3.502-4.2zm-.2 3.5c-.6-.3-1.7-.5-1.898-.9-.2-.4.6-.9 1-.9 0 0 1.199.7 1.398 1.2.3.4.2.9-.5.6zm-11.8-5.4c.1-.2 1-2.2 1.8-3.4.8-1.3 1.101-1.7 2-1.5.7.1.9.5.5 1.3-.399.8-3.399 3.5-3.8 3.7-.4.2-.6.1-.5-.1zm-1.1-5.6c-.301-.5-2.301-5.4-2.4-5.7 0-.3 0-1.4-.2-1.4-.2-.1-1-1.2-1.399-1.7-.4-.6-.301-1.1-.2-1.3 0 0 0-.1.1-.2.101-.1 7.9-.1 7.9-.1s.7-.4 1.2-.3c.5 0 .3.5.399.7.101.2.101 1.2.3.9.2-.3.9-.3.9.2s-2.5 6.8-2.5 7c0 .2-.4 1-.4 1.2 0 .2-1.8 1.1-2.6 1.5-.8.4-.8-.3-1.1-.8zm6.6 6.8-1 .8s-.3-.1-.8-.2c-.5-.2-1.4-.4-1.601-.7 0 0 1.2 0 1.801.1h1.6zm.4-18.6h-12.3s.101-7.2 2.9-10c2.8-2.8 4.5-4.5 9.4-4.9v14.9zm-11.1 20.2c.601.6-.2 1-.7.6-.4-.4.4-.9.7-.6zm2.7 12.1c-2 0-4-.299-4-.299s-.5-2.4-.8-3.4c-.3-1 .3-1.5.899-1.3.601.2 1.301.9 1.2 1.3-.1.4-.8 1.8-.8 1.8s0 .301.3.5c.3.103.8.301.8.301s1.5-1.899 3.301-1c1.8.898 1.1 2.098-.9 2.098zm22.399-5.1c-.601 0-5.399-.102-7.601-.5-2.2-.4-5-1.3-5-1.3l-5.1 2.5.7.301s4-1.899 4.3-2.101c.3-.2 1.1 0 .8.3-.3.301-4.1 2.103-4.1 2.103l1.5.5s3.3-1.603 3.8-1.901c.5-.298 1.399.102.8.4C296.2 70.6 293 72.1 293 72.1l1.1.399s3.8-2 4.3-2.2c.5-.3 1.199 0 .699.3-.5.2-4.1 2.2-4.1 2.2l1.5.4s3.899-2 4.6-2.401c.602-.399 1 .2.602.5-.4.3-4.102 2.3-4.102 2.3s1.2.399 2 .399c.801 0 .2.601-.1.701-.3.1-4.101 0-7.5-1.201-3.4-1.199-9.7-3.5-12.2-6.6s-2.3-2.8-2.4-3.5c-.1-.4.801-.3 1 0 .2.3.601.5.601.5s.7-.5.899-.7c.2-.2.601.4.4.6-.2.2-.8.7-.8.7l.7.5s1.899-1.1 2.199-1.1c.301 0 .9-.2 1.101-.4.2-.1 1.5-.8 1.5-.8l-.7-.7-1.2.7s.101.7-.3.7c-.4.1-.3-.6-.5-.8-.2-.2-1.2 0-1.2-.3s.601-.7.9-.6c.3.1.8.4.8.4l.9-.6s-.801-1.6-.301-2S284 59 284.2 59.3c.199.3 5.199 5.1 9 6.7 3.8 1.7 6.1 2.3 7.699 2.5 1.601.2 5.8.5 6.699.2.802-.2-.298 1.1-.899 1.2zM308 64.5l-4.601-5.2-.399.4 4.1 5.3s-.3.5-.6.4c-.3-.2-4.3-5.6-4.3-5.6l-.602.5 3.801 5.1-.801.3-4.3-5.5s1.2-.8 4.3-3.8c3.101-3 4.7-7 4.801-14.7.101-7.7-5-12.3-7.602-14.4-2.601-2.1-8.101-3.5-15.101-.6s-8.699 10.8-8.8 15.1c0 .5.4 2.7 0 2.8-.399.1-2.8.8-3.1.8-.3 0-.3-.5-.5-.4-.2.1-1.2.2-1.5.3-.3.1-.2.6-.2.6s-.3.3-1.3.4c-.9.1-.8-.2-.8-.6 0 0-.5-3.7.2-6 .399-2.3 1.199-5.9 3.5-11 1.6-3.6 5.899-7.7 5.899-7.7s.7.8 1.5 0c1.9-1.7 7.7-3.8 12.601-3.7 6.6 0 10.899 3.3 11.2 3.3s.601-.2.699-.4c0 0 5.7 3.1 8.101 9.1C320.4 45 315.699 53 314.1 57c-1.6 4.1-6.1 7.5-6.1 7.5z"/><path d="m343.699 63.2-1.399-1.7-1 1.2 1.6 1.9zm-10.899-5c-.5-1-2.3-1.9-2.7-2-2.8-.6-3 .9-3 1.5s1.2 3.5 3.602 3.7c2.398.1 2.5-.8 2.601-1.2.097-.4-.003-1-.503-2zm-2.101 2.6c-.5-.1-.8-.6-.899-1.3-.2-.7-.3-1.7-.3-2.1s.1-.8.5-.7c.6.1 1 .8 1.1 1.2.102.4.2 1.9.302 2.4.098.5-.203.6-.703.5zM309.6 59c-.3-.2-2.6-2.1-2.8-2.3-.2-.2 0-.8 0-.8l-.2-.1-2.397 2.8.8.9.1-.1s-.1-.7 0-.9c0-.2 1.2-1 1.2-1l1 1s-.2.4-.5.7c-.2.3-.8-.1-.8-.1l-.2.2 1.2 1 .1-.2s-.198-.3 0-.5c.102-.2.7-.6.7-.6l1.3.9-.198.3c-.2.3-1 .9-1.302 1.1-.3.2-.6-.1-.6-.1l-.2.2 1 .8 2.8-3-.198-.1c-.005 0-.505.2-.805-.1zm-13.5-35.8s.3-.5.5-.9.2-.8.2-2.1c.1-1.3-1.1-1.9-1.7-1.9s-1.5.4-1.6 1.1c0 .4-.3 2.2-.2 2.9.1.7 1 1.4 1.3 1.3.4 0 .9-.1.9-.1l.1.2c.101.2.8.8 1.3.8.4 0 1-.2 1-.2s-.5-.1-.9-.3-.9-.8-.9-.8zm-.8-.9c-.5.2 0 .8 0 .8s-1.2.6-1.3-.7c-.101-1.3.1-2 .1-2.5.101-.5.601-.9 1.101-.7.6 0 .899.8.899 1.6s-.3 1.8-.3 1.8-.2-.4-.5-.3zm7.3-1.1.2-.3s-.399-.1-.7-.3c-.3-.3-1-.5-1-.5l-.1.2s.3.3.399.3c.101 0 .199.3.101.5 0 .2-1 2-1 2.2 0 .1-.3.4-.8.6-.4.2-1.301-.4-1.301-.8s.801-2.6.899-2.9c.101-.3.3-.2.3-.2l.2-.4-1.399-.5-.101.3s.5.2.4.4c-.102.2-.4 1.6-.7 2.7s.399 1.6.899 1.9c.5.3 1.5.1 1.699-.2.2-.3 1.301-2.7 1.4-3 .104-.2.604 0 .604 0zm-10.8.7c0 .3.8.3.8-.2-.1-.4-.9-.5-.8.2zm-3.8 1.9c-.101-.2-1.3-3.1-1.5-3.4-.101-.3.2-.5.2-.5l-.101-.3-1.1.5v.4s.399 0 .5.1c.1.1 1.3 3.2 1.399 3.3.101.2-.199.5-.199.5l.1.3 1.2-.6v-.2c.001 0-.399.1-.499-.1zm-5.3-2.6c-.601.4-1.601 2-.5 3.3 1.1 1.3 2.3 1.8 3.199 1.2.9-.5 1.301-2.3.2-3.8-1.099-1.3-2.399-1.1-2.899-.7zm2.4 4c-.399.2-1.3.2-2.1-.9-.9-1.1-.3-2.1.1-2.4.5-.4 1.2 0 1.9 1.2.7 1.1.5 1.8.1 2.1zm7-5.6-.2-1.2s-1.699.2-2.3.4c-.7.3-2.399.7-2.399.7l.5 1.3.3-.1s0-.8.2-.9c.199-.1 1-.3 1-.2.1.1.6 2.8.699 3.1.1.3.1.5-.1.6l-.4.2.101.3s.7-.1.899-.2c.301-.1.9-.1.9-.1v-.3s-.4 0-.5-.3c-.1-.3-.6-3.1-.6-3.3 0-.2.199-.3.5-.4.3 0 .699-.2.899-.1.101.1.3.6.3.6l.201-.1zm10.6 5.7c-.102 0 .1-.3.1-.5s1.3-2.6 1.3-2.8c.102-.2.301-.2.5-.2.2 0 .301.1.301.1l.1-.3-1.7-.7-.1.2s.199.2.3.2c.1.1 0 .3 0 .5s-1.3 2.7-1.4 3c-.1.3-.199.2-.398.2-.2 0-.4-.2-.4-.2l-.2.2s.7.3.9.5c.199.2.7.4.7.4l.199-.3c-.002 0-.102-.3-.202-.3zm7.6 30c-.5.3-1.2.6-1.5.7-.3 0-1.2-.3-.7-.8s1-.8 1.399-.6c.4.2.7.3.7.3l.2-.3-1.802-1.2-.198.2.199.4s-.898.4-1 .7c-.1.3-.5 1.1.302 1.6.898.5 1.698.2 2.198-.1.5-.2 1.302-.5 1.5-.1.302.4 0 .9-.3 1.2-.3.3-.7.4-.898.4-.2 0-.7-.1-.7-.1l-.3.2L311 59l.199-.2-.3-.5s1.5-.9 1.5-1.3c0-.3-.102-1.2-.5-1.5-.499-.3-1.099-.5-1.599-.2zm-.3-17.9 1.399-.3.101-.3s-1.2 0-1.301-.2c-.102-.2-.102-.5-.199-.7 0-.2 0-.4.199-.4.2 0 3-1.1 3.301-1.2.3-.1.3.1.3.1h.399l-.5-1.5-.3.1s.198.6-.102.7c-.301.1-2.7.9-3.2 1.1-.5.2-.698-.5-.698-.5l-.302.2s.399 1.1.5 1.5c.102.3.403 1.4.403 1.4zm4.1 16.1s-.1.3-.398.3h-.5l-2.8-1.3L315 51l.5-.9-.2-.1s-.101.5-.398.5c-.302 0-3.602-.8-3.899-.9-.2 0-.301-.5-.301-.5l-.3-.2-.302.4-.398.9.301.1s.199-.5.399-.3c.3.2 2.698.8 2.698.8l-4 1.4-.198.1s3.898 1.8 4.101 2c.199.2.3.8.3.8l.2.1.8-1.7h-.203z"/><path d="M303.8 23.9c-.3.3.101 1 .601.5.599-.4-.201-.9-.601-.5z"/><path d="M307.199 29.6c.2-.2 2.601-2.4 2.7-2.5.101 0 .398.3.398.3l.199-.2-.699-1.1-4 1 1.102-3.7-1.199-1.2-.2.3s.3.3.3.5c.101.1 0 .4-.1.6-.102.2-1.4 2.4-1.602 2.6-.199.2-.3.2-.5.1-.199-.1-.3-.1-.3-.1l-.1.2 1 1 .199-.2s0-.2.101-.5c.1-.3 1.5-2.7 1.5-2.9.1-.2.3-.2.3-.2l-1.399 4.7 4.399-1.2s-2.2 1.8-2.398 1.9c-.2.2-.399.2-.5.1s-.199-.3-.199-.3L306 29l.8 1.3.3-.3s-.1-.3.099-.4zm2.101 3.7c.102-.2 3.399-3.4 3.399-3.4l-.102-.2s-4.3.7-4.5.8c-.198 0-.601-.2-.601-.2l-.399.4.802 1.1.198-.1s-.101-.3-.198-.5c-.102-.2 0-.2.198-.3.302-.1.399-.1.5-.1.102 0 .2.2.2.2s.399.9.399 1v.4s-.2.3-.399.3c-.2.1-.301-.5-.301-.5l-.199.1L309 34l.3-.2s-.101-.3 0-.5zm2.399-2.9L310 32l-.5-1.1 2.199-.5zM303.9 49.2c.101-.4.801-.7 1-1.3s.101-1.3.5-1.9c.301-.6.699-1.2.699-1.5 0-.4-.199-.1-.398.3-.2.4-.602.8-.801 1.3-.199.4-.301 1.3-.399 1.6-.101.3-.5.5-.5.5s.2-1.5.2-1.8c0-.3.1-.6.6-1 .4-.4.7-.6.5-.8-.2-.3-.2-.5-.2-.5l-.5-.5-.3.5h-2c-.1.4.2.6.5.8.3.2-.1.4-.5.1-.3-.2-.399-.3-.899-.3-.5.1-.601.3-.3.4.3.1.601 0 .699.3.101.3-.899.2-1.199.2-.301 0-.601.1-.399.3.3.3.1.2.6.2h.9s.8.1.8.4v3c0 .5.5 1 .5 1s-.101-.6.3-.8c.397-.3.597-.1.597-.5zm-8.4-.9c0 .2-.3.3-.5.3s0 .4.2.8c.199.5 0 .9 0 1.1s.899-.3 1-.4c.1-.1.3-.9.199-1.2-.1-.3.2-1.3.301-1.5.199-.3.699-.3.8-.6v-1.3c0-.2.6-.5.3-.7-.3-.2-.7.3-.7.5v1.2c0 .3-.6.5-.8.5-.2 0 .1-.4.2-.6.1-.2.2-.3.2-.6s.1-.7.1-1c0-.3-.4-.2-.7-.2-.3 0-.7 0-1.1.2-.4.2-.2 1.8-.101 2.3.101.5.601 1 .601 1.2zm-17.4 4.3s-4.399 1.5-5.1 1.8c-.7.3-1.5.6-1.5.6s.5.3.8.3c.3 0 6-1.9 6-1.9l-.2-.8zm.5 1.7s-2.399.8-3 1.1c-.899.4-2.8 1.3-2.8 1.3.2.2.5.3.9.2.3-.1 5.199-2.1 5.199-2.1l-.299-.5z"/></g><path fill="currentColor" d="M174 70.1h-48.6v-.8l7-3.9V17.7l-7-4v-.8h47l1 14.9-.899.3s-7.5-7.8-9.3-9.4c-1.7-1.6-3-2-4.101-2.4-2.3-.6-4.8-.6-4.8-.6l-8.6-.3v24.2s9-.1 10-.3c1.399-.2 1.899-.2 3.8-2.4 1.5-1.8 4-5 4-5h1V51h-1s-4.7-6.9-5.101-7.1c-.399-.2-1.1-1.3-3.6-1.3s-9.1-.2-9.1-.2v24.7s5.1.1 9.3-.3c4.1-.4 6.399-.4 9.1-2.7 2.7-2.3 9.8-10.6 9.8-10.6L175 54l-1 16.1zM609 54l-1.101-.4s-7.102 8.3-9.802 10.6c-2.698 2.3-5 2.4-9.101 2.7-4.101.4-9.3.3-9.3.3V42.5s6.601.2 9.101.2 3.3 1.1 3.602 1.3c.398.2 5.101 7.1 5.101 7.1h1v-19h-1s-2.4 3.2-4 5c-1.9 2.2-2.4 2.2-3.801 2.4-1 .1-10 .3-10 .3V15.6l8.601.3s2.5 0 4.8.6c1.102.4 2.4.8 4.102 2.4s9.3 9.4 9.3 9.4l.9-.3-1-14.9h-47v.8l7 4v47.7l-7 3.9v.8H608l1-16.3zm-88.6-2 17.5-39.1h19v.8l-6.9 4v47.5l6.9 4v.8h-27.1v-.7l7-4V24.7l-20.5 44.6h-2.5l-21.9-45.6v41.5l7 4v.8h-18.3v-.7l7.099-4V17.6l-7.099-4v-.7h20.7zm127.2-38.3 1.102 14.1-.899.2s-9.801-10.6-10.898-11.5c-.5-.4-5.2-3.7-10.102-.3 0 0-4.801 3.3-1.7 9.3 3.102 6.1 12.2 10.3 14.602 11.7 2.301 1.4 14 7.1 12.5 18.7-1.399 10.9-11.102 14-15.199 14.8-8.601 1.6-22-2-22-2l-1-14.8 1.1-.1s9.801 11.7 13.602 13.1c3.8 1.4 9.101 2 12.3-2.1 3.2-4 .5-9.7-2.601-11.9-4.399-3-10.801-6.4-15.301-9.4-5-3.3-8.199-8.2-8.898-13.7-.899-7.7 3.601-14 9.5-16.3 5.398-2.2 9.8-1.7 13.8-1.4 3.992.2 10.092 1.6 10.092 1.6zM40.374 101.923c-1.824-8.911-7.086-12.141-12.347-12.141h-.21v24.207c0 21.326.141 22.239 1.263 23.43.912.914 2.246 1.334 4.701 1.404v1.473H8.173v-1.473c2.456-.07 3.789-.49 4.701-1.404 1.122-1.19 1.262-2.104 1.262-23.43V89.783h-.209c-5.262 0-10.524 3.229-12.348 12.141H.106V87.33h41.742v14.594h-1.474zm31.917 38.373v-1.473c2.246-.07 3.017-.562 3.648-1.191 1.263-1.264 1.402-2.455 1.402-22.59H62.679c0 20.135.14 21.326 1.403 22.59.631.631 1.402 1.123 3.648 1.191v1.473H43.948v-1.473c2.245-.07 3.017-.562 3.648-1.191 1.262-1.264 1.403-2.525 1.403-23.854s-.141-22.521-1.403-23.782c-.632-.631-1.404-1.123-3.648-1.191V87.33h23.783v1.475c-2.246.068-3.017.562-3.648 1.191-1.193 1.192-1.403 2.316-1.403 21.608h14.662c0-19.292-.209-20.415-1.402-21.608-.632-.631-1.403-1.123-3.648-1.191V87.33h23.783v1.475c-2.246.068-3.017.562-3.648 1.191-1.263 1.264-1.403 2.455-1.403 23.782 0 21.328.141 22.591 1.403 23.854.631.631 1.402 1.123 3.648 1.191v1.473H72.291zm65.099 0H98.874v-1.473c2.246-.07 3.017-.562 3.648-1.191 1.262-1.264 1.403-2.525 1.403-23.854s-.141-22.521-1.403-23.782c-.631-.631-1.403-1.123-3.648-1.191V87.33h37.813l.211 14.594h-1.474c-1.543-7.155-4.7-11.786-12.067-11.786h-5.752v21.468h2.736c6.174 0 9.19-1.544 10.032-7.438h1.473v18.873h-1.473c-.842-5.822-3.859-7.998-10.032-7.998h-2.736s.069 11.365.069 13.328c0 6.313 1.123 9.051 7.366 9.051 6.665 0 10.033-4.42 11.717-12.137h1.474l-.841 15.011zm33.179.704c-5.191 0-9.751-1.824-11.787-1.824-1.052 0-1.964.35-3.087 1.121h-1.262v-15.014h1.473c1.052 8.141 5.823 12.91 13.751 12.91 6.594 0 8.699-4.139 8.699-7.787 0-12.277-24.204-11.154-24.204-27.642 0-8.21 4.841-16.138 16.837-16.138 4.42 0 8.84 1.612 10.663 1.612 1.263 0 1.964-.209 2.667-.909h1.192v14.594h-1.474c-1.474-5.686-4.981-12.489-13.119-12.489-5.332 0-7.717 3.017-7.717 6.313 0 10.875 25.747 10.174 25.747 28.693.001 9.544-7.645 16.56-18.379 16.56zm62.786-44.27v22.521c0 12.836-4.631 21.748-19.153 21.748-13.751 0-19.503-7.86-19.503-16.487V105.5c0-10.733-.491-14.594-1.403-15.504-.631-.633-1.404-1.125-3.648-1.193V87.33h23.783v1.474c-2.245.069-3.017.562-3.648 1.192-.982.981-1.404 4.7-1.404 15.994v20.697c0 6.805 3.578 10.031 9.611 10.031 7.437 0 11.366-5.613 11.366-17.118V96.729c0-5.61-.561-7.226-5.542-7.927v-1.475h15.083v1.475c-4.982.701-5.542 2.317-5.542 7.928zm50.927 0v43.566h-7.367l-27.29-37.674v28.273c0 5.609.561 7.227 5.542 7.928v1.473h-15.083v-1.473c4.98-.703 5.542-2.316 5.542-7.928v-17.118c0-21.329-.141-22.521-1.404-23.782-.631-.633-1.403-1.125-3.648-1.193V87.33h17.398l22.31 31.289V96.73c0-5.611-.561-7.227-5.542-7.928V87.33h15.084v1.474c-4.981.699-5.542 2.315-5.542 7.926zm33.108 43.566h-24.765v-1.473c2.245-.07 3.017-.562 3.648-1.191 1.263-1.264 1.403-2.525 1.403-23.854s-.141-22.521-1.403-23.782c-.631-.631-1.402-1.123-3.648-1.191V87.33h23.572c16.485 0 25.537 9.754 25.537 26.521.001 14.941-5.331 26.445-24.344 26.445zm-2.946-50.16h-3.087v38.865c0 5.261.911 8.418 6.944 8.418 6.945 0 9.19-8.908 9.19-23.782.001-13.048-3.156-23.501-13.047-23.501zm49.314 50.16v-1.473c4.279-.423 6.454-1.404 6.454-3.857 0-.911-.701-3.577-3.509-11.717h-13.61c-2.104 6.524-3.087 10.312-3.087 11.084 0 2.809 1.754 4.422 4.91 4.422v1.541h-17.047v-1.473c5.262-1.053 6.243-1.966 9.05-10.314l13.68-41.18h9.191l15.153 43.988c1.754 5.051 2.807 7.154 6.524 7.508v1.473l-27.709-.002zm-4.07-37.602-5.472 17.118h11.365l-5.893-17.118zm63.347-5.261-9.121 19.225c0 18.59.211 19.781 1.404 20.977.631.631 1.612 1.123 4.561 1.191v1.473H394.27v-1.473c3.019-.07 3.931-.562 4.562-1.191 1.192-1.193 1.403-2.387 1.403-20.977l-9.541-18.384c-4.562-8.839-4.91-9.049-8.979-9.471V87.33h25.045v1.474c-3.158.142-4.421.913-4.421 2.808 0 .842.353 1.825 2.525 6.174l7.087 14.241 5.963-12.558c1.894-3.998 2.945-6.385 2.945-7.787 0-1.475-.911-2.736-3.929-2.876V87.33h14.452v1.476c-4.207.559-4.839 1.33-8.347 8.627zm59.276 4.49c-1.823-8.911-7.086-12.141-12.348-12.141h-.21v24.207c0 21.326.142 22.239 1.263 23.43.912.914 2.245 1.334 4.701 1.404v1.473H450.11v-1.473c2.457-.07 3.79-.49 4.701-1.404 1.122-1.19 1.262-2.104 1.262-23.43V89.783h-.209c-5.263 0-10.523 3.229-12.349 12.141h-1.474V87.33h41.744v14.594h-1.474zm3.574 38.373v-1.473c2.244-.07 3.017-.562 3.647-1.191 1.263-1.264 1.403-2.525 1.403-23.854s-.142-22.521-1.403-23.782c-.632-.631-1.403-1.123-3.647-1.191V87.33h23.782v1.475c-2.245.068-3.017.562-3.648 1.191-1.263 1.264-1.401 2.455-1.401 23.782 0 21.328.14 22.591 1.401 23.854.633.631 1.403 1.123 3.648 1.191v1.473h-23.782zm62.576 0v-1.473c2.244-.07 3.018-.562 3.648-1.191 1.263-1.264 1.401-2.525 1.401-23.854V99.537l-13.891 40.832h-4.352l-14.312-40.832v31.36c0 5.61.562 7.226 5.543 7.927v1.473h-14.031v-1.473c4.42-.632 5.051-2.314 5.051-7.928v-17.118c0-21.327-.14-22.521-1.401-23.782-.632-.631-1.403-1.123-3.648-1.191V87.33h19.714l10.805 32.201 11.154-32.201h18.101v1.475c-2.244.068-3.018.562-3.648 1.191-1.262 1.264-1.402 2.455-1.402 23.782 0 21.328.142 22.591 1.402 23.854.632.631 1.404 1.123 3.648 1.191v1.473h-23.782zm65.1 0h-38.516v-1.473c2.244-.07 3.018-.562 3.648-1.191 1.262-1.264 1.402-2.525 1.402-23.854s-.142-22.521-1.402-23.782c-.633-.631-1.404-1.123-3.648-1.191V87.33h37.813l.21 14.594h-1.476c-1.543-7.155-4.7-11.786-12.064-11.786h-5.753v21.468h2.735c6.175 0 9.19-1.544 10.032-7.438h1.473v18.873h-1.473c-.842-5.822-3.857-7.998-10.032-7.998h-2.735s.07 11.365.07 13.328c0 6.313 1.121 9.051 7.365 9.051 6.664 0 10.032-4.42 11.715-12.137h1.476l-.84 15.011zm20.059.704c-5.19 0-9.751-1.824-11.786-1.824-1.052 0-1.964.35-3.088 1.121h-1.261l.842-15.014h1.473c.562 7.998 4.981 12.91 12.909 12.91 6.595 0 8.699-4.139 8.699-7.787 0-12.277-24.204-11.154-24.204-27.642 0-8.21 4.842-16.138 16.837-16.138 4.421 0 8.842 1.612 10.665 1.612 1.262 0 1.964-.209 2.665-.909h1.19v14.594h-1.473c-1.473-5.686-4.981-12.489-13.118-12.489-5.332 0-7.718 3.017-7.718 6.313 0 10.875 25.746 10.174 25.746 28.693.003 9.544-7.643 16.56-18.378 16.56z"/></svg>