<svg xmlns="http://www.w3.org/2000/svg" viewBox="0 0 171 56"><path fill="currentColor" d="M38.84 29.878c.58-.289 1.218-.636 1.798-.925.232-.115 1.043-.404 1.16-.636.057-.115 0-.462 0-.635V5.485c0-.058.057-.462 0-.52-.059-.058-.523 0-.58 0h-1.276c-.464 0-.406.058-.696.404a289.885 289.885 0 0 0-3.304 4.393c-.522.694-1.043 1.33-1.507 2.024-.348.462-.348.52-.986.52l.174-3.815c.058-.925.058-1.85.116-2.775 0-.347.058-.693.058-1.04 0-.116-.058-.463 0-.52.116-.174 1.16-.058 1.45-.058h21.68c.116 0 .638-.058.754 0 .116.057.058.404.058.578.058.751.058 1.56.116 2.312.058 1.676.116 3.295.232 4.97v.348c-.29 0-.522.058-.754-.116-.232-.173-.405-.52-.58-.751-.695-.925-1.39-1.908-2.144-2.833l-2.087-2.774c-.116-.174-.29-.578-.522-.694-.174-.115-.522-.058-.754-.058h-.927c-.116 0-.58-.057-.696 0-.058.058 0 .058-.058.174-.116.462 0 1.04 0 1.503v20.115c0 .405-.116.983 0 1.388.116.404 1.044.693 1.45.867.405.23 1.1.404 1.449.751.116.116.232.694.116.867-.058.058-.348 0-.406 0H39.42c-.116 0-.521.058-.58 0-.057-.231 0-.693 0-.867Zm21.508-1.04V4.328c0-.346.116-.866 0-1.213-.116-.405-.812-.462-1.218-.636-.231-.058-.985-.231-1.101-.462v-.463h.174c.232-.115.696-.115.985-.173.522-.116 1.044-.174 1.508-.29a75.647 75.647 0 0 1 3.536-.635c.696-.116 1.391-.289 2.087-.405.174 0 .87-.115.927 0 .058.058 0 .29 0 .347v11.966c2.203-2.197 6.03-3.41 9.102-2.66 2.666.636 3.536 3.122 3.536 5.665.058 3.237 0 6.417 0 9.654v2.6c0 .29-.116.983 0 1.272.058.116.29.174.406.29.406.23.87.462 1.275.693.058.058.232.116.232.174.058.057.058.578 0 .635-.058.116-.058.058-.232.058-.637.116-1.333 0-1.913 0h-8.348c-.058 0-.347.058-.405 0-.058-.058-.058-.693 0-.751.173-.232.87-.463 1.101-.636.174-.116.696-.29.812-.463.116-.173 0-.809 0-.982v-2.37c0-3.353.058-6.763 0-10.116 0-.982-.174-2.139-1.16-2.659-.522-.289-1.217-.347-1.797-.347-.464 0-.927.116-1.333.232-.348.115-.986.346-1.218.635-.174.232-.058.578-.058.867v13.642c0 .29-.116.867 0 1.098.058.116.29.232.464.29.406.23.928.462 1.333.693.058.058.174.058.174.116.058.058.058.578 0 .636-.058.057-.116.057-.231.057-.638.058-1.334 0-1.972 0h-8.347c-.058 0-.348.058-.406 0-.058-.057 0-.635.058-.751.174-.231.811-.463 1.043-.578.406-.174.696-.347.986-.52Zm27.536-7.977c.116 2.543.928 5.375 3.246 6.763 1.218.693 2.725.925 4.116.809 1.682-.173 3.073-.983 4.522-1.734 0 .231.058.636 0 .867-.116.231-.406.52-.58.694-.231.23-.521.52-.811.751-.986.81-2.087 1.387-3.247 1.792-2.202.751-4.753.694-7.014.116-1.797-.463-3.42-1.33-4.638-2.717s-1.913-3.18-2.203-5.03c-.637-3.988.116-8.554 3.42-11.213 2.9-2.312 7.537-2.775 10.957-1.387 4.174 1.676 4.87 6.416 4.87 10.347H89.449c-.521-.058-1.043-.058-1.565-.058Zm-.116-.983c1.16-.058 2.319-.116 3.536-.231.696-.058 1.45-.058 2.145-.116.116 0 .406 0 .522-.058.174-.115.058-1.271.058-1.502-.058-2.081-.116-4.625-1.333-6.417-.87-1.271-2.203-1.04-3.015.116-1.681 2.254-1.913 5.607-1.913 8.208ZM0 40.976c0-3.237.638-6.59 2.435-9.306 1.739-2.659 4.522-4.393 7.536-5.26 3.652-1.04 7.71-.925 11.478-.231.812.173 1.623.346 2.377.578.116.058.638.173.696.289v.173c.174.694.058 1.56.058 2.254.058 1.792.058 3.642.116 5.434-.232 0-.638.058-.812 0-.116-.058-.232-.347-.29-.462-.464-.694-.927-1.388-1.333-2.14-.986-1.56-2.03-3.12-3.015-4.681-.521-.867-1.97-.867-2.898-.867-1.044 0-2.087.173-2.957.693-1.97 1.214-2.898 3.584-3.42 5.723-.812 3.41-.754 6.994-.58 10.462.174 2.66.406 5.492 1.45 7.92.637 1.502 1.739 2.832 3.42 3.179.522.115 1.043.115 1.623.057.348-.057 1.565-.115 1.74-.462.057-.116 0-.405 0-.52v-9.48c0-.405.115-.578-.233-.81-.405-.23-.87-.462-1.275-.75-.29-.174-.87-.347-1.044-.579-.115-.115-.173-.751-.058-.867.058-.115.058-.058.232-.058.522-.115 1.218 0 1.74 0h8.985c.58 0 1.217-.057 1.797 0H28c.058.058.058.867 0 .983-.116.174-.696.405-.928.52-.405.232-.87.463-1.275.752-.464.231-.406.231-.406.751v9.422c0 .116.058.405 0 .52-.116.29-1.333.463-1.68.578-.986.29-2.03.52-3.073.694a30.8 30.8 0 0 1-6.087.405c-3.247-.116-6.667-.81-9.334-2.775C2.9 51.44 1.391 48.895.696 46.121.174 44.502 0 42.71 0 40.976Zm26.725-5.26c0-.115-.058-.578 0-.636.058-.057.116 0 .174-.057.347-.174.811-.174 1.217-.232 1.333-.23 2.667-.462 4.058-.693 1.043-.174 2.087-.405 3.072-.52.29-.058.638-.058.928.057.29.058.174 0 .232.232.116.693 0 1.502 0 2.196v12.081c0 1.445-.406 4.104.985 4.971.696.463 1.681.463 2.493.29.638-.116 1.855-.579 2.087-1.272.058-.174 0-.405 0-.579V37.393c0-.116.058-.463 0-.578-.174-.174-.754-.347-.928-.405-.347-.116-.637-.29-.985-.405-.116-.058-.522-.115-.58-.23-.058-.059-.058-.579 0-.637.058-.058.058 0 .116-.058.29-.173.812-.115 1.102-.173 2.376-.405 4.811-.925 7.246-1.272.29-.057.58-.057.87 0 .29.058.174-.057.231.232.116.578 0 1.387 0 2.023v16.647c0 .174-.057.463 0 .694.058.173 0 .115.29.231.58.231 1.218.52 1.797.751.174.058.232.058.29.174.058.115.058.52 0 .52-.116.116-.695.058-.811.116-1.276.173-2.551.289-3.884.462-1.16.116-2.32.29-3.42.405a1.417 1.417 0 0 1-.696 0c-.116 0-.464 0-.522-.058-.058-.116 0-.578 0-.694v-.982c0-.174.116-.636 0-.81-.116-.173-.348.058-.522.174-.464.404-.985.81-1.507 1.098-1.913 1.156-4.29 1.676-6.493 1.214-1.623-.347-3.014-1.272-3.71-2.832-.522-1.099-.638-2.313-.638-3.469V37.393c0-.116.058-.463 0-.578-.116-.174-.811-.347-.985-.463-.58-.231-1.044-.405-1.507-.636ZM81.39 33.52c.116 0 .638 0 .696.115.058.058 0 .463 0 .52v5.087c0 .174-.058.463 0 .636v.116c.232.231.29-.52.348-.578.522-2.139 1.507-4.625 3.71-5.492.406-.173.812-.23 1.217-.289.348 0 1.334-.115 1.508.174.058.115 0 .404 0 .52v5.896c-1.392-.29-2.957-.231-4.29.058a6.531 6.531 0 0 0-1.797.578c-.29.115-.348.058-.406.289-.058.231 0 .636 0 .867v11.156c0 .116-.058.289 0 .405.116.173.522.289.695.346.29.174.638.347.928.52.116.058.29.116.348.232.058.058.058.751 0 .81-.058.057-.406 0-.522 0h-9.623c-.29 0-.812.115-1.044 0h-.173c-.058-.059 0-.695 0-.752.115-.347.87-.578 1.217-.752.232-.115.696-.289.811-.52.058-.116 0-.462 0-.578v-16.07c0-.057.058-.346 0-.404-.057-.058-.347-.116-.463-.116-.348-.115-.696-.23-1.044-.289-.348-.115-1.217-.173-.927-.751.058-.174.29-.116.521-.174 2.551-.462 5.044-.924 7.595-1.387.232-.115.463-.115.695-.173Zm21.855.52v-5.954c0-.173.058-.52 0-.693-.058-.116-.29-.174-.463-.232a40.328 40.328 0 0 0-1.45-.52c-.347-.116-.521-.058-.521-.462 0-.347-.058-.232.231-.29.638-.23 1.392-.23 2.03-.346 1.913-.347 3.768-.694 5.68-1.04.406-.058.812-.174 1.218-.116.464.058.522-.058.522.347.058.924 0 1.907 0 2.832v25.318c0 .231-.058.231.116.347.348.231.927.347 1.275.462.232.058.87.174.986.347.058.058.058.694 0 .751-.058.058-.406.058-.464.058-.812.116-1.565.232-2.377.29-1.797.23-3.594.462-5.45.693-.29.058-.985.173-1.1-.058-.117-.231 0-.983 0-1.214 0-.173.115-.925 0-1.04-.117-.116-1.392 1.04-1.566 1.156-.696.462-1.45.81-2.26 1.04-1.276.347-2.725.347-4 .058-5.566-1.272-6.725-7.861-6.262-12.659.232-2.543 1.044-5.087 2.783-6.936 1.623-1.677 3.826-2.544 6.087-2.717 1.739-.173 3.42-.058 4.985.578Zm0 18.44V35.6c0-.346-.058-.404-.463-.635-.812-.463-1.855-.636-2.725-.29-1.333.521-1.971 2.082-2.319 3.353-.696 2.313-.753 4.798-.696 7.226.058 2.08.116 4.624 1.276 6.474 1.043 1.618 3.42 2.023 4.927.751Zm19.189-18.96c.29.058.637-.058.753.23.058.174 0 .579 0 .752v18.093c0 .231-.058.578 0 .81.058.23.29.288.522.404.348.173.638.347.986.52.116.058.463.173.521.347 0 .058.058.751 0 .81h-.174c-.347.057-.811 0-1.217 0h-8.812c-.231 0-.87.115-1.043 0-.116-.059-.174-.752-.058-.868.116-.173.522-.289.696-.347.348-.173.695-.404 1.043-.578.29-.173.232-.115.232-.347.116-.867 0-1.85 0-2.716V37.74c0-.232.058-.636 0-.868-.058-.23-.348-.23-.58-.346-.405-.174-.753-.29-1.16-.463-.115-.058-.579-.116-.695-.289-.058-.058-.058-.636 0-.694.058-.057.174 0 .232-.057.464-.174.986-.174 1.507-.29.754-.115 1.45-.288 2.203-.404 1.45-.231 2.84-.52 4.29-.751.29.057.522 0 .754-.058Zm.811-5.376c-.116 3.468-4.811 4.971-6.956 2.254a3.729 3.729 0 0 1-.174-4.335c.87-1.33 2.55-1.907 4.116-1.56 1.739.346 3.014 1.85 3.014 3.641Zm25.392 25.376V36.93c0-.058.058-.347 0-.404-.058-.116-.406-.174-.522-.174l-1.044-.347c-.173-.058-.637-.115-.753-.289-.116-.115-.058-.404-.058-.578 0-.347.116-.289.464-.347l3.826-.693 3.826-.694c.232-.058.406-.115.637-.115.116 0 .696 0 .812.057.058.058 0 .405 0 .52v1.099c0 .173-.116.693 0 .867.116.231.348 0 .522-.174a9.658 9.658 0 0 1 1.623-1.04c2.087-1.156 4.58-1.676 6.957-1.33 1.623.232 2.956 1.099 3.536 2.66.406 1.098.464 2.254.464 3.41v13.18c0 .23-.058.635 0 .866.058.231.231.29.521.405.29.173.638.347.928.52.116.058.522.173.58.347.057.115.057.694 0 .751-.058.116.057 0-.116.058-.232.116-.754 0-1.044 0h-8.29c-.348 0-1.68.174-1.855-.058-.058-.057-.058-.693 0-.809.058-.116.406-.231.522-.289.348-.173.638-.347.985-.52.116-.058.464-.174.522-.29.058-.115 0-.346 0-.462V39.936c0-.925.058-1.965-.522-2.775-.463-.693-1.275-.867-2.087-.924-.637 0-1.217.057-1.797.23-.29.116-1.16.348-1.333.694-.058.116 0 .347 0 .463v14.971c0 .173-.058.578 0 .751.058.232.406.29.58.405.29.173.637.347.927.52.116.058.348.174.406.231.058.058.058.752 0 .81 0 .058-.058 0-.116 0-.232.115-.811 0-1.043 0h-9.74c-.29 0-.347.058-.405-.116-.058-.115-.058-.636 0-.751.058-.116.406-.232.521-.29.58-.057 1.044-.346 1.566-.635Zm-12.29-10.636c0-1.503.058-3.064-.058-4.624-.174-1.677-.638-3.526-2.55-3.873-.58-.116-1.624-.29-2.03.173-.406.405-.696.983-1.043 1.445l-2.957 3.989c-.174.231-.348.693-.58.809-.058.058-.637.058-.637 0-.058-.058 0-.462 0-.578v-4.682c0-.174-.058-.463 0-.636.116-.289 1.391-.462 1.68-.578a28.922 28.922 0 0 1 4.986-.81c2.377-.173 5.044-.115 7.247.926 1.739.809 2.84 2.254 3.13 4.104.174.925.116 1.965.116 2.89v11.56c0 .174-.116.636 0 .752.058.058.348.116.406.116.464.115.87.23 1.333.346.29.058.348.058.348.347 0 .29.058.29-.29.405-.406.173-.811.347-1.217.462-2.145.636-5.507.81-7.073-1.156-.116-.173-.463-.925-.637-.982-.232-.058-.928.867-1.16 1.04-.927.81-2.145 1.272-3.362 1.445-2.26.29-4.696-.173-6.087-2.139-1.16-1.676-1.391-4.277-.522-6.127 1.566-3.526 6.203-3.873 9.566-4.45.405 0 .87-.116 1.39-.174Zm0 9.595v-8.555c-1.74.116-3.536.232-4.174 2.14-.464 1.27-.464 2.774-.29 4.103.116.925.348 2.081 1.217 2.66.928.635 2.493.52 3.247-.348Zm-73.391-9.595c0-1.503.057-3.064-.058-4.624-.174-1.677-.638-3.526-2.551-3.873-.58-.116-1.623-.29-2.03.173-.405.405-.695.983-1.043 1.445l-2.956 3.989c-.174.231-.348.693-.58.809-.058.058-.638.058-.638 0-.058-.058 0-.462 0-.578v-4.624c0-.174-.058-.463 0-.636.116-.29 1.334-.463 1.682-.578 1.623-.405 3.304-.694 4.927-.81 2.377-.173 5.044-.115 7.247.925 1.739.81 2.84 2.255 3.13 4.104.174.925.116 1.966.116 2.89v11.561c0 .174-.116.636 0 .752.058.058.348.115.406.115.463.116.87.232 1.333.347.29.058.348.058.348.347 0 .29.058.29-.29.405-.406.173-.812.347-1.217.462-2.145.636-5.508.81-7.073-1.156-.116-.173-.464-.925-.638-.983-.231-.057-.927.867-1.101 1.04-.928.81-2.145 1.273-3.362 1.446-2.261.289-4.696-.173-6.087-2.139-1.16-1.676-1.392-4.277-.522-6.127 1.565-3.526 6.203-3.873 9.507-4.45.464-.059.928-.174 1.45-.232Zm0 9.595v-8.555c-1.74.116-3.537.232-4.174 2.14-.464 1.27-.464 2.774-.29 4.103.116.925.348 2.081 1.217 2.66.928.635 2.493.52 3.247-.348Z"/></svg>