<svg xmlns="http://www.w3.org/2000/svg" viewBox="0 0 121 38"><path fill="currentColor" fill-rule="evenodd" d="M120.98 5.619c.133.517-.448 1.013-.75 1.393-2.532 3.167-5.341 6.912-8.716 9.317.244 1.26.115 2.932-.326 3.854.884 1.124 1.822 2.188 2.368 3.643-.719 3.8-2.388 6.748-5.057 8.675-2.605 1.878-6.125 2.619-10.118 3.534-7.72 1.77-20.424 3.517-26.152-1.072-6.202 3.62-18.736 4.098-24.537-.215-4.123 5.194-20.39 4.738-17.97-5.568-3.017 2.273-7.478 5.407-11.733 7.176-4.935 2.05-14.28 1.819-13.347-5.14.113-.83.465-1.298.862-2.036-1.444-2.507-2.356-4.247-3.229-6.426-.836-2.09-2.111-4.47-2.26-7.388-.313-6.21 4.551-10.148 9.367-11.998 2.456-.943 4.452-2.31 6.886-2.995 3.636-1.031 6.754.96 6.994 4.283 4.229-1.248 9.377-2.626 14.96-1.82 4.447-3.44 13.129-1.315 18.835.32 1.29.37 3.026 1.327 3.982 1.286.809-.033 2.27-1.125 3.118-1.5 4.004-1.767 9.239-3.648 14.96-2.677 1.084.182 2.075.753 3.228.855.783.072 1.74-.173 2.584-.212 13.373-.65 24.508 2.922 36.053 4.71h-.001Zm-37.45-.427c-1.365.163-2.335 1.65-3.228 2.142.065-.007.126-.018.106-.109.163-.73.476-1.312.538-2.14-7.162-2.51-14.132 1.16-19.262 3.962-4.103 2.239-7.763 4.872-10.332 7.495.929-1.574 1.914-3.132 3.014-4.603 1.115-1.494 2.356-2.846 3.338-4.176-2.146-.56-4.296-1.15-6.46-1.608-3.076-.652-7.353-1.73-9.901-.32-.737.406-1.34 1.41-2.045 1.499-.583.075-1.543-.349-2.26-.428-2.63-.291-5.05-.048-7.426.428-2.226.444-6.931 1.23-7.535 3.318-.386 1.341.476 2.64.324 3.966-.147 1.303-1.406 3.029-2.045 4.068-.782 1.276-1.577 2.405-2.907 2.998-.805-3.99.07-7.539.755-10.922.421-2.086 1.27-4.22.54-6.32-2.054-.284-3.782 1.333-5.814 2.14-3.818 1.52-8.069 2.906-8.609 7.284-.304 2.466.627 4.033 1.292 5.784a42.226 42.226 0 0 0 5.275 9.853c-.571 1.042-1.913 1.314-2.048 2.782.608.855 1.873.969 3.122.965 3.61-.008 6.572-1.816 9.254-3.32 5.84-3.27 9.765-8.304 13.885-13.065.724-.837 1.32-1.846 2.261-2.356.925 4.23-.874 6.493-2.155 9.959-.493 1.335-2.05 5.515-1.291 7.495.832 2.179 7.916 2.274 9.794.86.946-.712 1.323-2.32 1.831-3.32.649-1.287 1.21-2.397 1.721-3.534.029 4.691 3.531 6.069 7.317 7.068 8.049 2.117 16.165-1.665 20.557-4.282-.55 3.476.807 3.824 3.552 4.39 7.097 1.458 14.244-.224 20.017-1.608 5.292-1.267 9.548-2.163 10.332-7.39-.847-.73-2.964-.639-4.411-.427-4.27.622-8.402 2.769-14.099 2.355-1.04-.075-3.285-.436-3.446-1.07-.25-.988 1.528-1.68 3.018-1.927 4.269-.72 10.441.007 13.88-1.29 1.65-.618 3.642-2.407 3.442-4.388-.13-1.338-1.886-2.039-3.551-2.14-4.71-.293-8.076 2.443-13.018 1.498.617-.776.729-2.056 1.504-2.676 3.615-.076 7.126.638 10.547.427 4.756-.296 7.437-2.29 9.687-4.926.24-.285.844-.59.646-1.07-8.261-1.25-19.522-4.564-29.706-3.32Zm-16.358 8.244c-.53 2.402-1.639 5.151-2.26 7.817 3.42.049 7.029-.646 10.546-.857.476-.632.71-1.506.97-2.356.705.994 1.201 2.853.538 4.284-5.342-.075-9.181 4.279-14.421 4.283-2.347.002-4.341-1.34-3.23-3.963 1.569-3.698 5.46-6.282 7.857-9.208Zm12.484-3.963c1.006 1.141 3.209 1.092 4.52 1.93-1.77.452-3.996.449-5.598 1.068.378-.983.717-2 1.078-2.997v-.001Z"/></svg>